<svg id="Layer_1" data-name="Layer 1" xmlns="http://www.w3.org/2000/svg" viewBox="0 0 49.99 33.92"><path d="M49.88,30a1.77,1.77,0,0,0-.32-.5,1.45,1.45,0,0,0-.48-.34A1.43,1.43,0,0,0,48.5,29H46.18V4.09a4.23,4.23,0,0,0-.08-.79,4.22,4.22,0,0,0-.22-.77,3.81,3.81,0,0,0-.35-.7,3.66,3.66,0,0,0-.48-.62A3.54,3.54,0,0,0,44.46.7a4.14,4.14,0,0,0-.68-.39,3.65,3.65,0,0,0-.73-.23A3.92,3.92,0,0,0,42.29,0H7.69a4,4,0,0,0-.76.08A3.86,3.86,0,0,0,6.2.31,4.5,4.5,0,0,0,5.53.7a3.54,3.54,0,0,0-.59.51,3.3,3.3,0,0,0-.48.62,4.63,4.63,0,0,0-.36.7,5.2,5.2,0,0,0-.22.77,4.15,4.15,0,0,0-.07.79V29H1.48a1.39,1.39,0,0,0-.57.12,1.45,1.45,0,0,0-.48.34,1.58,1.58,0,0,0-.32.5,1.71,1.71,0,0,0-.11.59v.53a3,3,0,0,0,.2,1.07,2.88,2.88,0,0,0,.58.91,2.64,2.64,0,0,0,.87.61,2.41,2.41,0,0,0,1,.22H47.31a2.45,2.45,0,0,0,1-.22,2.64,2.64,0,0,0,.87-.61,2.88,2.88,0,0,0,.58-.91,3,3,0,0,0,.2-1.07v-.53A1.71,1.71,0,0,0,49.88,30ZM4.5,4.09a3.6,3.6,0,0,1,.06-.66,4.32,4.32,0,0,1,.19-.64,3,3,0,0,1,.3-.59,3.36,3.36,0,0,1,.39-.52,3.89,3.89,0,0,1,.49-.42A3.06,3.06,0,0,1,7.08.76,3.17,3.17,0,0,1,7.69.69h34.6a3.27,3.27,0,0,1,.62.07,3.47,3.47,0,0,1,.6.19,4.29,4.29,0,0,1,.55.31,3.8,3.8,0,0,1,.48.42,3.42,3.42,0,0,1,.4.52,3,3,0,0,1,.3.59,3.36,3.36,0,0,1,.18.64,3.68,3.68,0,0,1,.06.66V29H44.24V3H5.74V29H4.5ZM6.44,8.82H43.55V29H6.44ZM43.55,5.68H6.44v-2H43.55ZM6.44,6.37H43.55V8.12H6.44ZM49.29,31.11a2.29,2.29,0,0,1-.15.82,2.18,2.18,0,0,1-.43.68,2.08,2.08,0,0,1-.65.46,1.94,1.94,0,0,1-.75.16H2.68a2,2,0,0,1-.76-.16,2,2,0,0,1-.64-.46,2.18,2.18,0,0,1-.43-.68,2.3,2.3,0,0,1-.16-.82v-.53a.88.88,0,0,1,.07-.33A.88.88,0,0,1,.93,30a.76.76,0,0,1,.26-.18.59.59,0,0,1,.29-.07h47a.63.63,0,0,1,.3.07.64.64,0,0,1,.25.18.75.75,0,0,1,.18.28.88.88,0,0,1,.06.33Z" style="fill:#fff"/><path d="M8.66,30.13a1,1,0,0,0-1,.83,1,1,0,0,0-2,.19,1,1,0,0,0,1,1,1,1,0,0,0,1-.83,1,1,0,0,0,1,.83,1,1,0,0,0,0-2.05ZM6.73,31.48a.31.31,0,0,1-.29-.33.29.29,0,1,1,.58,0A.31.31,0,0,1,6.73,31.48Zm1.93,0a.31.31,0,0,1-.29-.33.29.29,0,1,1,.58,0A.31.31,0,0,1,8.66,31.48Z" style="fill:#fff"/><path d="M8.32,14.31h4V10h-4ZM9,10.65h2.62v3H9Z" style="fill:#fff"/><path d="M8.32,20.1h4V15.75h-4ZM9,16.44h2.62v3H9Z" style="fill:#fff"/><path d="M8.32,25.9h4V21.55h-4ZM9,22.24h2.62v3H9Z" style="fill:#fff"/><rect x="14.62" y="11.78" width="6.92" height="0.69" style="fill:#fff"/><rect x="14.62" y="17.58" width="10.38" height="0.69" style="fill:#fff"/><rect x="14.62" y="23.38" width="7.25" height="0.69" style="fill:#fff"/><path d="M26.91,30.52H23.08a1,1,0,0,0,0,2h3.83a1,1,0,0,0,0-2Zm0,1.35H23.08a.33.33,0,0,1,0-.66h3.83a.33.33,0,0,1,0,.66Z" style="fill:#fff"/><path d="M25,2.54a.75.75,0,0,0,.74-.76.74.74,0,1,0-1.47,0A.75.75,0,0,0,25,2.54Zm0-.83a.07.07,0,0,1,.05.07c0,.07-.09.09-.09,0S25,1.71,25,1.71Z" style="fill:#fff"/><path d="M29.85,22.48h9.08V10H29.85Zm.69-11.83h7.7V21.78h-7.7Z" style="fill:#fff"/></svg>