<svg id="Layer_1" data-name="Layer 1" xmlns="http://www.w3.org/2000/svg" viewBox="0 0 62.68 55.57"><path d="M46.14,46.94c-.1-.71-.23-1.7-.35-2.79s-.22-2.08-.27-2.8l-.09-1.17s0,.45,0,1.18a23.77,23.77,0,0,0,.14,2.83A24.17,24.17,0,0,0,46,47c.17.7.3,1.13.3,1.13Z" style="fill:#fff"/><path d="M46.59,49.13a2.34,2.34,0,0,0-.3-.69,2.14,2.14,0,0,0,.36,1.45A2.4,2.4,0,0,0,46.59,49.13Z" style="fill:#fff"/><path d="M46.72,50.32a.32.32,0,0,0,.08.5.42.42,0,0,0,.09-.27A.38.38,0,0,0,46.72,50.32Z" style="fill:#fff"/><path d="M46.92,51.24a1.34,1.34,0,0,0,0,.63,1.36,1.36,0,0,0,.31.55,1.87,1.87,0,0,0-.06-.62A1.74,1.74,0,0,0,46.92,51.24Z" style="fill:#fff"/><path d="M39.71,42.5a9.73,9.73,0,0,1,1.61,3.27c.06.23.11.42.13.55l0,.2v-.21a3.54,3.54,0,0,0-.05-.57,5.47,5.47,0,0,0-.17-.82,6.47,6.47,0,0,0-.37-1,5.84,5.84,0,0,0-.54-.89,5.62,5.62,0,0,0-.55-.65,4.19,4.19,0,0,0-.43-.39l-.16-.14.13.16C39.44,42.15,39.56,42.31,39.71,42.5Z" style="fill:#fff"/><path d="M41.47,47.42s0,.95,0,2.11.06,2.09.06,2.09,0-.23.1-.61a14.55,14.55,0,0,0,.09-1.5,11.34,11.34,0,0,0-.1-1.48C41.52,47.65,41.47,47.42,41.47,47.42Z" style="fill:#fff"/><path d="M41.36,51.93a.39.39,0,0,0-.09.27.38.38,0,0,0,.16.22.39.39,0,0,0,.09-.27A.38.38,0,0,0,41.36,51.93Z" style="fill:#fff"/><path d="M38,37.72c.09.41.17,1,.29,1.6a6.62,6.62,0,0,0,.23.88,4.09,4.09,0,0,0,.29.69,2.75,2.75,0,0,0,.15.25c0,.07.09.13.12.18l.12.15-.08-.16a1.29,1.29,0,0,1-.09-.2c0-.08-.07-.16-.1-.26a6.75,6.75,0,0,1-.2-.7c-.07-.27-.13-.56-.19-.88a9.3,9.3,0,0,0-.42-1.58,3.65,3.65,0,0,0-.2-.46l-.09-.16,0,.18Z" style="fill:#fff"/><path d="M37.34,33.37s0,.06,0,.15a2.45,2.45,0,0,0,.06.34,3.4,3.4,0,0,0,.1.33l0,.15a.48.48,0,0,0,.07-.15.7.7,0,0,0,0-.39.66.66,0,0,0-.2-.33A.56.56,0,0,0,37.34,33.37Z" style="fill:#fff"/><path d="M37.89,30.93a1.41,1.41,0,0,0-.25,0,2,2,0,0,0-.55.17,2.21,2.21,0,0,0-.48.32,1.46,1.46,0,0,0-.17.16l.23-.07a4.14,4.14,0,0,0,.53-.2c.19-.09.36-.2.49-.27Z" style="fill:#fff"/><path d="M36.86,30.7a.65.65,0,0,0-.28.22.59.59,0,0,0,.36,0,.64.64,0,0,0,.29-.22A.62.62,0,0,0,36.86,30.7Z" style="fill:#fff"/><path d="M39.43,33.12a3.72,3.72,0,0,0,.78.89,3.19,3.19,0,0,0,.29.22l.11.07-.09-.1-.22-.27c-.18-.24-.41-.56-.65-.94a9.57,9.57,0,0,1-.54-1,2.73,2.73,0,0,1-.15-.32l-.05-.12v.13c0,.09,0,.21.06.35A4,4,0,0,0,39.43,33.12Z" style="fill:#fff"/><path d="M39.22,33.09a4.06,4.06,0,0,0-.35-.68,2,2,0,0,0,.1.77,1.86,1.86,0,0,0,.42.65A3.28,3.28,0,0,0,39.22,33.09Z" style="fill:#fff"/><path d="M37.77,28.66a2.67,2.67,0,0,0-.44-.61,2.09,2.09,0,0,0-.22-.21l.49.9.5.91a2,2,0,0,0-.06-.31A2.64,2.64,0,0,0,37.77,28.66Z" style="fill:#fff"/><path d="M38,29.74a.75.75,0,0,0,0,.32.76.76,0,0,0,.2.25.5.5,0,0,0,0-.32A.61.61,0,0,0,38,29.74Z" style="fill:#fff"/><path d="M38.46,30.74a.28.28,0,0,0,0-.21.29.29,0,0,0-.17-.14.28.28,0,0,0,0,.21A.29.29,0,0,0,38.46,30.74Z" style="fill:#fff"/><path d="M41,31.69s.7.9,1.67,1.93,1.81,1.81,1.81,1.81-.7-.9-1.67-1.93S41,31.69,41,31.69Z" style="fill:#fff"/><path d="M44,34.42A8.26,8.26,0,0,0,43,33.25a9.2,9.2,0,0,0-1.12-1s.41.52,1,1.12S44,34.42,44,34.42Z" style="fill:#fff"/><path d="M43.81,33.62a3.43,3.43,0,0,0-1.23-1.2,4.84,4.84,0,0,0,.56.65A5.31,5.31,0,0,0,43.81,33.62Z" style="fill:#fff"/><path d="M43.69,33.16a.93.93,0,0,0-.21-.37,1.13,1.13,0,0,0-.36-.25.93.93,0,0,0,.21.37A1.13,1.13,0,0,0,43.69,33.16Z" style="fill:#fff"/><path d="M44.73,35.79a1.38,1.38,0,0,0,.27.41,1.61,1.61,0,0,0,.42.3,1.36,1.36,0,0,0-.27-.42A1.54,1.54,0,0,0,44.73,35.79Z" style="fill:#fff"/><path d="M45.93,36.87a2,2,0,0,0-.22-.16l-.11-.06a.34.34,0,0,0,0,.12.74.74,0,0,0,.16.23.83.83,0,0,0,.25.15l.12,0a.44.44,0,0,0-.06-.1A1.42,1.42,0,0,0,45.93,36.87Z" style="fill:#fff"/><path d="M46.25,37.3a.2.2,0,0,0,0,.17.24.24,0,0,0,.18,0,.22.22,0,0,0,0-.17A.27.27,0,0,0,46.25,37.3Z" style="fill:#fff"/><path d="M46.74,37.79a.52.52,0,0,0,.16.27.6.6,0,0,0,.32.13.65.65,0,0,0-.18-.26A.72.72,0,0,0,46.74,37.79Z" style="fill:#fff"/><path d="M33.69,24.14a3.16,3.16,0,0,0,.13.33,4.59,4.59,0,0,0,1,1.4c.16.16.27.25.27.25s-.29-.46-.66-1S33.69,24.14,33.69,24.14Z" style="fill:#fff"/><path d="M35.11,26.23a.39.39,0,0,0,.1.22.42.42,0,0,0,.24.1.36.36,0,0,0-.1-.22A.42.42,0,0,0,35.11,26.23Z" style="fill:#fff"/><path d="M35,25.41a1.33,1.33,0,0,0-.25-.48,1.49,1.49,0,0,0-.43-.35,1.89,1.89,0,0,0,.28.46A2.15,2.15,0,0,0,35,25.41Z" style="fill:#fff"/><path d="M35.29,24.92a.14.14,0,0,0,0-.07.19.19,0,0,0-.07-.14.25.25,0,0,0-.16-.05.15.15,0,0,0-.08,0l0,.06a.28.28,0,0,0,.08.11.45.45,0,0,0,.12.06Z" style="fill:#fff"/><path d="M37.39,25.11c-.3-.21-.56-.41-.75-.56l-.3-.25s.08.12.23.31a4.15,4.15,0,0,0,.7.64,3.92,3.92,0,0,0,.85.47,3,3,0,0,0,.38.14l-.33-.21C38,25.51,37.69,25.33,37.39,25.11Z" style="fill:#fff"/><path d="M37.63,24.93a1.09,1.09,0,0,0,.39.13.79.79,0,0,0-.28-.28.9.9,0,0,0-.38-.12A.84.84,0,0,0,37.63,24.93Z" style="fill:#fff"/><path d="M38,24.75a.73.73,0,0,0,.35.08.68.68,0,0,0-.25-.23.76.76,0,0,0-.34-.07A.62.62,0,0,0,38,24.75Z" style="fill:#fff"/><path d="M44.29,28.28a8.93,8.93,0,0,0-.72-1.09,10.25,10.25,0,0,0-.89-1,8.74,8.74,0,0,0,.73,1.08A9,9,0,0,0,44.29,28.28Z" style="fill:#fff"/><path d="M43.24,27.43a.45.45,0,0,0-.1-.21.44.44,0,0,0-.2-.15l-.1,0a.9.9,0,0,0,.15.3,1,1,0,0,0,.26.21A.23.23,0,0,0,43.24,27.43Z" style="fill:#fff"/><path d="M42.7,27.44a.36.36,0,0,0,.1.23.47.47,0,0,0,.24.11.34.34,0,0,0-.1-.23A.39.39,0,0,0,42.7,27.44Z" style="fill:#fff"/><path d="M42.41,27.67a.28.28,0,0,0,.07.2.35.35,0,0,0,.21.09.31.31,0,0,0-.07-.21A.32.32,0,0,0,42.41,27.67Z" style="fill:#fff"/><path d="M42.06,28.24a.9.9,0,0,0,.19.16l.1.06a.45.45,0,0,0,0-.11.54.54,0,0,0-.12-.22A.58.58,0,0,0,42,28l-.12,0,.05.1A.77.77,0,0,0,42.06,28.24Z" style="fill:#fff"/><path d="M42,28.38c-.12-.14-.25-.26-.34-.35l-.15-.14a1.23,1.23,0,0,0,.07.19,1.45,1.45,0,0,0,.28.42,1.5,1.5,0,0,0,.4.31,1.46,1.46,0,0,0,.2.1l-.13-.16Z" style="fill:#fff"/><path d="M46.63,30.42l.16.18a1.07,1.07,0,0,1,.13.21,2.21,2.21,0,0,1,.24.84c0,.11,0,.21,0,.28V32l0-.1c0-.07,0-.16,0-.28a1.58,1.58,0,0,0-.16-.93,1.88,1.88,0,0,0-.16-.23l-.18-.17L46.43,30a3.74,3.74,0,0,0-.32-.23l.25.3Z" style="fill:#fff"/><path d="M46.9,32.59a.37.37,0,0,0,.1.23.43.43,0,0,0,.09-.24.33.33,0,0,0-.09-.23A.49.49,0,0,0,46.9,32.59Z" style="fill:#fff"/><path d="M36.92,25.93a16.56,16.56,0,0,0,1.2,1.46,17.86,17.86,0,0,0,1.35,1.35s-.5-.69-1.2-1.46S36.92,25.93,36.92,25.93Z" style="fill:#fff"/><path d="M40,29.15a1,1,0,0,0-.19-.12l-.1,0,0,.1a.4.4,0,0,0,.12.19.61.61,0,0,0,.21.11h.11a.26.26,0,0,0,0-.09A.83.83,0,0,0,40,29.15Z" style="fill:#fff"/><path d="M40.37,29.73a.2.2,0,0,0,0,.17.26.26,0,0,0,.18.05.24.24,0,0,0,0-.17A.26.26,0,0,0,40.37,29.73Z" style="fill:#fff"/><path d="M41.09,30.45a.3.3,0,0,0-.05-.17.31.31,0,0,0-.15-.11.19.19,0,0,0-.09,0,.48.48,0,0,0,.07.24.57.57,0,0,0,.21.16A.41.41,0,0,0,41.09,30.45Z" style="fill:#fff"/><path d="M13,14.7s2,.08,4.47.08,4.48-.08,4.48-.08-2-.09-4.48-.09S13,14.7,13,14.7Z" style="fill:#fff"/><path d="M25.18,14.74a1.32,1.32,0,0,0-1,0,1.33,1.33,0,0,0,1,0Z" style="fill:#fff"/><path d="M26.41,14.7a1,1,0,0,0-.39-.09,1,1,0,0,0-.4.09,1.09,1.09,0,0,0,.4.08A1.07,1.07,0,0,0,26.41,14.7Z" style="fill:#fff"/><path d="M13.91,15.27s1.73.08,3.86.08,3.86-.08,3.86-.08-1.73-.09-3.86-.09S13.91,15.27,13.91,15.27Z" style="fill:#fff"/><path d="M16.28,15.62s.72.08,1.6.08,1.6-.08,1.6-.08a14.27,14.27,0,0,0-3.2,0Z" style="fill:#fff"/><path d="M17.33,16a4.75,4.75,0,0,0,1.84,0,4.75,4.75,0,0,0-1.84,0Z" style="fill:#fff"/><path d="M17.81,16.32a1,1,0,0,0,.84,0,1,1,0,0,0-.84,0Z" style="fill:#fff"/><path d="M38.12,17.64s2.33.08,5.2.08,5.2-.08,5.2-.08-2.33-.09-5.2-.09S38.12,17.64,38.12,17.64Z" style="fill:#fff"/><path d="M43.6,17.28c1.17,0,2.11-.08,2.11-.08s-.94-.09-2.11-.09-2.1.09-2.1.09S42.44,17.28,43.6,17.28Z" style="fill:#fff"/><path d="M43.54,16.8a3.71,3.71,0,0,0,.81-.09,4.14,4.14,0,0,0-1.62,0A3.71,3.71,0,0,0,43.54,16.8Z" style="fill:#fff"/><path d="M43.65,16.54a.92.92,0,0,0,.39-.09.92.92,0,0,0-.39-.09,1,1,0,0,0-.4.09A1,1,0,0,0,43.65,16.54Z" style="fill:#fff"/><path d="M43.87,16.1a.27.27,0,0,0-.4,0,.27.27,0,0,0,.4,0Z" style="fill:#fff"/><path d="M48.25,14.43s-1.89-.08-4.23-.08-4.23.08-4.23.08,1.89.09,4.23.09S48.25,14.43,48.25,14.43Z" style="fill:#fff"/><path d="M48.65,14.52a.31.31,0,0,0,.44,0,.31.31,0,0,0-.44,0Z" style="fill:#fff"/><path d="M49.48,14.43a.58.58,0,0,0,.62,0,.64.64,0,0,0-.62,0Z" style="fill:#fff"/><path d="M23.69,42.2s-2.33-.09-5.2-.09-5.19.09-5.19.09,2.32.08,5.19.08S23.69,42.2,23.69,42.2Z" style="fill:#fff"/><path d="M25.45,42.11a2.32,2.32,0,0,0-1.28,0,2.32,2.32,0,0,0,1.28,0Z" style="fill:#fff"/><path d="M26.76,42.11a.64.64,0,0,0-.31-.09.63.63,0,0,0-.3.09.63.63,0,0,0,.3.09A.64.64,0,0,0,26.76,42.11Z" style="fill:#fff"/><path d="M28.43,42.07a1.73,1.73,0,0,0-1.1,0,1.93,1.93,0,0,0,1.1,0Z" style="fill:#fff"/><path d="M29.74,42.11a.51.51,0,0,0-.28-.09.57.57,0,0,0-.29.09.57.57,0,0,0,.29.09A.51.51,0,0,0,29.74,42.11Z" style="fill:#fff"/><path d="M12.42,38.07s1.29.09,2.87.09,2.88-.09,2.88-.09S16.88,38,15.29,38,12.42,38.07,12.42,38.07Z" style="fill:#fff"/><path d="M16.85,37.59s-.91-.09-2-.09-2,.09-2,.09.91.09,2,.09S16.85,37.59,16.85,37.59Z" style="fill:#fff"/><path d="M16.06,37.11a7,7,0,0,0-2.24,0,7,7,0,0,0,2.24,0Z" style="fill:#fff"/><path d="M15.4,36.71a1.92,1.92,0,0,0-.55-.08,1.9,1.9,0,0,0-.54.08,1.71,1.71,0,0,0,.54.09A1.73,1.73,0,0,0,15.4,36.71Z" style="fill:#fff"/><path d="M15.18,36.28a.81.81,0,0,0-.74,0,.9.9,0,0,0,.74,0Z" style="fill:#fff"/><path d="M13,23c0-1.49-.09-2.69-.09-2.69s-.09,1.2-.09,2.69.09,2.7.09,2.7S13,24.45,13,23Z" style="fill:#fff"/><path d="M13.3,23.12a5.73,5.73,0,0,0-.09-1,5.73,5.73,0,0,0-.09,1,5.88,5.88,0,0,0,.09,1A5.88,5.88,0,0,0,13.3,23.12Z" style="fill:#fff"/><path d="M13.65,23.27a.72.72,0,0,0-.09-.33.65.65,0,0,0,0,.66A.72.72,0,0,0,13.65,23.27Z" style="fill:#fff"/><path d="M49.53,24.3c0,1.82.08,3.29.08,3.29s.09-1.47.09-3.29S49.61,21,49.61,21,49.53,22.49,49.53,24.3Z" style="fill:#fff"/><path d="M49.88,23.91c0,1,.08,1.75.08,1.75a17,17,0,0,0,.09-1.75A17.36,17.36,0,0,0,50,22.15S49.88,22.94,49.88,23.91Z" style="fill:#fff"/><path d="M50.23,23.67a3.7,3.7,0,0,0,.08.76,3.31,3.31,0,0,0,.09-.76,3.34,3.34,0,0,0-.09-.77A3.74,3.74,0,0,0,50.23,23.67Z" style="fill:#fff"/><path d="M50.71,23.67a1.53,1.53,0,0,0,.09.5,1.7,1.7,0,0,0,.08-.5,1.73,1.73,0,0,0-.08-.51A1.56,1.56,0,0,0,50.71,23.67Z" style="fill:#fff"/><path d="M51.28,23.62a1.24,1.24,0,0,0,.09.46,1.37,1.37,0,0,0,.08-.46,1.44,1.44,0,0,0-.08-.46A1.3,1.3,0,0,0,51.28,23.62Z" style="fill:#fff"/><path d="M51.76,23.29a.57.57,0,0,0-.09.29.51.51,0,0,0,.09.28.51.51,0,0,0,.09-.28A.57.57,0,0,0,51.76,23.29Z" style="fill:#fff"/><path d="M52.24,23.56a3.26,3.26,0,0,0-.08-.71,2.92,2.92,0,0,0-.09.71,2.89,2.89,0,0,0,.09.7A3.23,3.23,0,0,0,52.24,23.56Z" style="fill:#fff"/><path d="M52.64,23.47a7.92,7.92,0,0,0-.09-1.19,7.85,7.85,0,0,0,0,2.37A7.86,7.86,0,0,0,52.64,23.47Z" style="fill:#fff"/><path d="M52.82,22.79c0,1.95.08,3.53.08,3.53s.09-1.58.09-3.53-.09-3.53-.09-3.53S52.82,20.84,52.82,22.79Z" style="fill:#fff"/><path d="M53.08,33.64s.08-.78.08-1.75-.08-1.75-.08-1.75a17.06,17.06,0,0,0,0,3.5Z" style="fill:#fff"/><path d="M52.64,32.55a2.41,2.41,0,0,0,.09-.64,2.29,2.29,0,0,0-.09-.63,2.29,2.29,0,0,0-.09.63A2.41,2.41,0,0,0,52.64,32.55Z" style="fill:#fff"/><path d="M52.24,32.46a1.68,1.68,0,0,0,.09-.53,1.58,1.58,0,0,0-.09-.52,1.75,1.75,0,0,0-.08.52A1.87,1.87,0,0,0,52.24,32.46Z" style="fill:#fff"/><path d="M51.85,31.49a.44.44,0,0,0-.09.25.43.43,0,0,0,.09.24.43.43,0,0,0,.09-.24A.44.44,0,0,0,51.85,31.49Z" style="fill:#fff"/><path d="M55.58,27.13a5.64,5.64,0,0,0-.09-1,5.64,5.64,0,0,0-.09,1,5.5,5.5,0,0,0,.09,1A5.5,5.5,0,0,0,55.58,27.13Z" style="fill:#fff"/><path d="M55.53,28.84a1,1,0,0,0-.08-.37.88.88,0,0,0-.09.37.83.83,0,0,0,.09.37A.91.91,0,0,0,55.53,28.84Z" style="fill:#fff"/><path d="M55.45,30a.61.61,0,0,0,.08.29.57.57,0,0,0,.09-.29.51.51,0,0,0-.09-.28A.55.55,0,0,0,55.45,30Z" style="fill:#fff"/><path d="M55,27.13a3.71,3.71,0,0,0,.09.81,3.69,3.69,0,0,0,0-1.62A3.71,3.71,0,0,0,55,27.13Z" style="fill:#fff"/><path d="M54.57,26.91a1.56,1.56,0,0,0,.09.51,1.73,1.73,0,0,0,.08-.51,1.62,1.62,0,0,0-.08-.5A1.46,1.46,0,0,0,54.57,26.91Z" style="fill:#fff"/><path d="M38,41.67a2.46,2.46,0,0,0-1.32,0,2.76,2.76,0,0,0,1.32,0Z" style="fill:#fff"/><path d="M52.86,38.5l0,.51c0,.31-.07.73-.16,1.19a4.14,4.14,0,0,1-.4,1.11,1.65,1.65,0,0,1-.22.29l-.1.09.12-.07a1.25,1.25,0,0,0,.27-.26,2.76,2.76,0,0,0,.5-1.13A5.54,5.54,0,0,0,52.9,39C52.88,38.7,52.86,38.5,52.86,38.5Z" style="fill:#fff"/><path d="M52.8,37.56a1.32,1.32,0,0,0,.09.47,1.27,1.27,0,0,0,0-.94A1.32,1.32,0,0,0,52.8,37.56Z" style="fill:#fff"/><path d="M52.84,36.72a.61.61,0,0,0,0-.64.61.61,0,0,0,0,.64Z" style="fill:#fff"/><path d="M52.71,35.39a.61.61,0,0,0,.08.29.57.57,0,0,0,.09-.29.63.63,0,0,0-.09-.3A.68.68,0,0,0,52.71,35.39Z" style="fill:#fff"/><path d="M24.31,18.88a5.73,5.73,0,0,0-1-.09,5.93,5.93,0,0,0-1,.09,6.65,6.65,0,0,0,1,.08A6.43,6.43,0,0,0,24.31,18.88Z" style="fill:#fff"/><path d="M29.66,38s-1.52-.09-3.4-.09-3.4.09-3.4.09,1.53.08,3.4.08S29.66,38,29.66,38Z" style="fill:#fff"/><path d="M27.67,37.73a7.78,7.78,0,0,0-2.36,0,8.74,8.74,0,0,0,2.36,0Z" style="fill:#fff"/><path d="M31,38.1a1.19,1.19,0,0,0-.44-.09,1.11,1.11,0,0,0-.43.09,1.11,1.11,0,0,0,.43.09A1.19,1.19,0,0,0,31,38.1Z" style="fill:#fff"/><path d="M32.23,38.1a.58.58,0,0,0-.62,0,.58.58,0,0,0,.62,0Z" style="fill:#fff"/><path d="M33.88,38.1a1.32,1.32,0,0,0-.47-.09,1.42,1.42,0,0,0-.48.09,1.42,1.42,0,0,0,.48.09A1.32,1.32,0,0,0,33.88,38.1Z" style="fill:#fff"/><path d="M48.7,25s-.09,1.21-.09,2.71.09,2.71.09,2.71.09-1.22.09-2.71S48.7,25,48.7,25Z" style="fill:#fff"/><path d="M48.2,27.65A9.76,9.76,0,0,0,48.29,29a10.85,10.85,0,0,0,0-2.63A9.7,9.7,0,0,0,48.2,27.65Z" style="fill:#fff"/><path d="M47.69,27.84a4.73,4.73,0,0,0,.09.91,4.6,4.6,0,0,0,0-1.81A4.69,4.69,0,0,0,47.69,27.84Z" style="fill:#fff"/><path d="M47.25,28a1.32,1.32,0,0,0,.09.47,1.47,1.47,0,0,0,.08-.47,1.49,1.49,0,0,0-.08-.48A1.35,1.35,0,0,0,47.25,28Z" style="fill:#fff"/><path d="M46.84,28.07a1.07,1.07,0,0,0,.08.39,1,1,0,0,0,.09-.39,1,1,0,0,0-.09-.4A1.09,1.09,0,0,0,46.84,28.07Z" style="fill:#fff"/><path d="M30.94,24.32a.4.4,0,0,0,.19-.2.48.48,0,0,0,0-.12L31,24a1,1,0,0,0-.21.07,1.4,1.4,0,0,0-.18.13l-.09.07a.37.37,0,0,0,.11.05A.38.38,0,0,0,30.94,24.32Z" style="fill:#fff"/><path d="M33.27,16.39a1,1,0,0,0-.1.44c0,.12,0,.19,0,.19a1.39,1.39,0,0,0,.11-.16c.05-.09.13-.22.2-.36s.12-.28.15-.38l.06-.18a.81.81,0,0,0-.16.1A1.16,1.16,0,0,0,33.27,16.39Z" style="fill:#fff"/><path d="M21.46,6.31a8.54,8.54,0,0,1,1.93-1.64,12.63,12.63,0,0,1,2.29-1.11l.73-.26.28-.09-.29.06a7.63,7.63,0,0,0-.76.18,8.62,8.62,0,0,0-2.37,1,6.71,6.71,0,0,0-1.9,1.76,4.86,4.86,0,0,0-.41.67c-.09.16-.13.25-.13.25L21,6.92A7.42,7.42,0,0,1,21.46,6.31Z" style="fill:#fff"/><path d="M22.72,4.26c.38-.24.74-.45,1-.59l.44-.23-.13,0c-.08,0-.2,0-.35.09a4.35,4.35,0,0,0-1.1.51,4.39,4.39,0,0,0-.91.78,3.25,3.25,0,0,0-.23.28l-.08.11.39-.31C22,4.75,22.34,4.51,22.72,4.26Z" style="fill:#fff"/><path d="M22.22,3.78l.49-.32.2-.15a1.07,1.07,0,0,0-.25,0,2.37,2.37,0,0,0-.56.23,1.86,1.86,0,0,0-.46.38,1.21,1.21,0,0,0-.16.19l.23-.1Z" style="fill:#fff"/><path d="M35.44,9.2a1.42,1.42,0,0,0,0-.22,1.32,1.32,0,0,0-.08-.52,1.25,1.25,0,0,0-.3-.43l-.17-.14.25.66Z" style="fill:#fff"/><path d="M35.89,8.65a.46.46,0,0,0,.11.07V8.59a1.38,1.38,0,0,0,0-.25.89.89,0,0,0-.12-.24L35.76,8a.35.35,0,0,0,0,.12.48.48,0,0,0,0,.29A.56.56,0,0,0,35.89,8.65Z" style="fill:#fff"/><path d="M38.27,43.84A8,8,0,0,0,37,44a7.27,7.27,0,0,0,2.63,0A8,8,0,0,0,38.27,43.84Z" style="fill:#fff"/><path d="M30.1,44.67s2.18.12,4.86.12,4.87-.12,4.87-.12-2.18-.12-4.87-.12S30.1,44.67,30.1,44.67Z" style="fill:#fff"/><path d="M38.63,45a5.3,5.3,0,0,0-1.11.12,5.71,5.71,0,0,0,2.23,0A5.34,5.34,0,0,0,38.63,45Z" style="fill:#fff"/><path d="M39.83,45.63a3,3,0,0,0-1.68,0,3.26,3.26,0,0,0,1.68,0Z" style="fill:#fff"/><path d="M40.15,46.18a3.7,3.7,0,0,0-.88-.11,3.6,3.6,0,0,0-.88.11,3.32,3.32,0,0,0,.88.12A3.42,3.42,0,0,0,40.15,46.18Z" style="fill:#fff"/><path d="M11.69,41.88a8.35,8.35,0,0,0-1.4-.12,8.15,8.15,0,0,0-1.39.12,8.15,8.15,0,0,0,1.39.12A8.35,8.35,0,0,0,11.69,41.88Z" style="fill:#fff"/><path d="M11.61,40.92a1.92,1.92,0,0,0-1.28,0,1.77,1.77,0,0,0,1.28,0Z" style="fill:#fff"/><path d="M11.69,38a7.18,7.18,0,0,0-1.24-.11A7,7,0,0,0,9.22,38a6.43,6.43,0,0,0,1.23.12A6.6,6.6,0,0,0,11.69,38Z" style="fill:#fff"/><path d="M10.93,37.21a2.27,2.27,0,0,0,.68-.11,2,2,0,0,0-1.36,0A2.27,2.27,0,0,0,10.93,37.21Z" style="fill:#fff"/><path d="M47.08,46.1a6.17,6.17,0,0,0,1.2.12,6,6,0,0,0,1.19-.12A6.52,6.52,0,0,0,48.28,46,6.71,6.71,0,0,0,47.08,46.1Z" style="fill:#fff"/><path d="M56.75,31.8c1.92,0,3.47-.12,3.47-.12s-1.55-.12-3.47-.12c-1.42,0-2.64.07-3.18.1v-.08h1.86a.8.8,0,0,0,.8-.81V26.08a.8.8,0,0,0-.8-.8H53.57v-.59c.49,0,1.27.08,2.16.08,1.49,0,2.7-.12,2.7-.12s-1.21-.11-2.7-.11c-.89,0-1.67,0-2.16.07v-.49a2.34,2.34,0,0,0,.57.08,2.12,2.12,0,0,0,.69-.12,2.12,2.12,0,0,0-.69-.12,2.34,2.34,0,0,0-.57.08v-.51a14.4,14.4,0,0,0,1.67.09,16.15,16.15,0,0,0,1.88-.11,14.82,14.82,0,0,0-1.88-.12c-.73,0-1.36.06-1.67.09V22.8c.33,0,1,.09,1.79.09a16.68,16.68,0,0,0,2-.12,18.18,18.18,0,0,0-2-.11c-.79,0-1.46.06-1.79.09V21.56a4.6,4.6,0,0,0,.93.1,4.39,4.39,0,0,0,1-.11,4,4,0,0,0-1-.12,3.75,3.75,0,0,0-.93.11V17.6a2.76,2.76,0,0,0,.57.06,2.56,2.56,0,0,0,.77-.12,2.74,2.74,0,0,0-1.34-.05v-.42c.31,0,1.17.1,2.2.1a22.67,22.67,0,0,0,2.33-.12s-1-.11-2.33-.11c-1,0-1.89.07-2.2.1v-.11a2.58,2.58,0,0,0,0-.39,5.24,5.24,0,0,0,.77.06,5.14,5.14,0,0,0,1.1-.12,5.59,5.59,0,0,0-1.1-.11,5.46,5.46,0,0,0-.78.05,3.1,3.1,0,0,0-.47-1.19c.35,0,.84.06,1.37.06a16,16,0,0,0,2-.12,17.41,17.41,0,0,0-2-.11c-.58,0-1.1,0-1.46.06a3.05,3.05,0,0,0-2.43-1.23h-15a7,7,0,0,0,.21-2.32l.83,0c3.23-.23,7-.95,9.6-3.1a1.47,1.47,0,0,0,.87.27,1.53,1.53,0,0,0,1.08-.45l1-1a2.58,2.58,0,0,0,.39,0,2.46,2.46,0,0,0,1.75-.73l2.4-2.4-.29-.29.93-.93L51.42,0l-.94.94L50.19.65l-2.4,2.4a2.43,2.43,0,0,0-.72,1.75c0,.06,0,.12,0,.18L46,6.09a1.56,1.56,0,0,0-.44,1.08,1.6,1.6,0,0,0,.18.72,11.7,11.7,0,0,1-4,2,23.38,23.38,0,0,1-6,1,8.06,8.06,0,0,0-.3-1.39,6.24,6.24,0,0,0-.89-1.74A6.35,6.35,0,0,0,29,5.29v.34a6.06,6.06,0,0,1,5.23,2.29l.14.22c.06.21.13.42.19.66.12.43.2.83.25,1.12s.05.26.06.34l0,.13,0-.13a2.87,2.87,0,0,0,0-.35,5.45,5.45,0,0,0-.09-.9,6.93,6.93,0,0,1,.52,1.86h-.59a5.75,5.75,0,0,0-.34-1.33,4.58,4.58,0,0,0-.71-1.23A3.91,3.91,0,0,0,33,7.64l-.21-.15-.07,0,.06.06a1.3,1.3,0,0,1,.19.17,5.12,5.12,0,0,1,.6.72,5.9,5.9,0,0,1,.9,2.49h-.28c0-.2-.09-.38-.14-.55a5.33,5.33,0,0,0-.35-.84,2.84,2.84,0,0,0-.18-.31c-.05-.09-.1-.16-.14-.22l-.13-.18.1.2c0,.07.07.15.1.24s.09.2.13.32a5.55,5.55,0,0,1,.27.84c0,.15,0,.33.08.5h0l-.31,0a1.67,1.67,0,0,0,0-.18,1.81,1.81,0,0,0-.24-.44,1.62,1.62,0,0,0-.22-.26l-.09-.08.06.11a1.58,1.58,0,0,1,.14.29,2.15,2.15,0,0,1,.15.45.36.36,0,0,1,0,.1l-.4,0a.47.47,0,0,0-.07-.12,1.36,1.36,0,0,0-.15-.19.24.24,0,0,1,0,.07s0,.1,0,.17v.06a32.6,32.6,0,0,1-5.31-.72l-.05,0,0,0q-1.11-.24-2.22-.54l-.94-.25a2.77,2.77,0,0,1,.17-.51,1.82,1.82,0,0,1,.3-.5.56.56,0,0,1,.11-.11l0,0-.05,0a.76.76,0,0,0-.13.1,2,2,0,0,0-.39.46,3.66,3.66,0,0,0-.23.52l-.33-.08a6.78,6.78,0,0,1,.54-1,6.65,6.65,0,0,1,.47-.66l.2-.23-.22.2a4.5,4.5,0,0,0-.55.61,5.49,5.49,0,0,0-.65,1.07L23.16,9a5.85,5.85,0,0,1,.6-1.09A6.07,6.07,0,0,1,29,5.63V5.29a6.38,6.38,0,0,0-5.5,2.44,6.72,6.72,0,0,0-.66,1.2,30.69,30.69,0,0,0-5.62-1A11.77,11.77,0,0,0,9.72,9.77a11.65,11.65,0,0,0-4.57,6.52c-.67,2.36-1,5.59.82,7.55a3.34,3.34,0,0,0-.17.44,4.12,4.12,0,0,0,.61,3.28A2.35,2.35,0,0,0,8,28.71a1.76,1.76,0,0,0,.29.75l-2.56,0c-3.18,0-5.76.12-5.76.12s2.58.11,5.76.11l2.71,0a1.73,1.73,0,0,0,.44.36h0c-1.58,0-2.86.12-2.86.12s1.28.11,2.86.11h.6a1.84,1.84,0,0,0,.33,0H11.7v.67c-.29,0-1.7-.11-3.41-.11-1.91,0-3.47.11-3.47.11s1.56.12,3.47.12c1.71,0,3.12-.09,3.41-.11v6.61a3.5,3.5,0,0,0-.81-.1,3.7,3.7,0,0,0-.88.11,3.42,3.42,0,0,0,.88.12,3.5,3.5,0,0,0,.81-.1v1c-.29,0-1.68-.11-3.36-.11-1.89,0-3.43.11-3.43.11s1.54.12,3.43.12c1.68,0,3.07-.09,3.36-.11v2.69a3.26,3.26,0,0,0-.85-.1,4,4,0,0,0-.92.11,3.64,3.64,0,0,0,.92.12,3.78,3.78,0,0,0,.85-.1v.1a1.42,1.42,0,0,0,.26.81c-.41,0-1.25-.09-2.23-.09-1.38,0-2.51.12-2.51.12s1.13.11,2.51.11c1,0,1.87-.06,2.27-.09a1.41,1.41,0,0,0,.56.44l-3,0C6,42.72,3,42.84,3,42.84S6,43,9.61,43c2.57,0,4.8-.06,5.89-.09H38.92l.44.53c-.48,0-2.13-.11-4.12-.11-2.35,0-4.26.11-4.26.11s1.91.12,4.26.12c2,0,3.67-.08,4.13-.11l0,0a6.85,6.85,0,0,1,.79,3.14c-.14,0-2.29-.11-5-.11s-5,.11-5,.11,2.23.12,5,.12,4.83-.11,5-.12l0,.28a7.61,7.61,0,0,0-1-.07A7.18,7.18,0,0,0,38,46.9a6.6,6.6,0,0,0,1.24.12,7.17,7.17,0,0,0,1-.08c0,.19,0,.38,0,.57a3.36,3.36,0,0,0-.72-.09,3.11,3.11,0,0,0-.84.12,3.11,3.11,0,0,0,.84.12,3.36,3.36,0,0,0,.72-.09c0,.82.06,1.66,0,2.43s-.1,1.93-.2,3.27c.12-.41.25-.82.39-1.22.06-.83.1-1.56.11-2.06,0-.91.05-5.53-1-6.73-1.58-1.85-1.91-2.61-2.16-4.11a11.11,11.11,0,0,1-.1-3.29,5.46,5.46,0,0,0-.67-2.38l-.15-.34a7,7,0,0,0-.44-.87,5,5,0,0,1-.62-1.43,24.08,24.08,0,0,1-.42-2.67l.15.19a.71.71,0,0,0,.29.2,1,1,0,0,0,.42,0,2.22,2.22,0,0,0,.41-.1.73.73,0,0,0,.38-.26.71.71,0,0,0,.14-.37.84.84,0,0,0-.14-.49c1.13.72,1.73,2.42,2.17,3.68a6.51,6.51,0,0,0,.65,1.52A5.56,5.56,0,0,0,42.1,34a6.4,6.4,0,0,1-2.29-1.58,5.5,5.5,0,0,1-.52-1.22l7.25,7.14a8.71,8.71,0,0,0-.29,1.59l-.14.05.13,0c0,.19,0,.41,0,.64h0c0,.11,0,.21,0,.33h-.07l.07,0v.51h0c0,.37,0,.75,0,1.16s.14,1.25.27,2.06a83.84,83.84,0,0,0,2.36,10.82c-.43-2.17-1.13-5.73-1.65-8.64a6.25,6.25,0,0,0,1.07.09,6.87,6.87,0,0,0,1.27-.12,7.47,7.47,0,0,0-1.27-.11,8,8,0,0,0-1.09.08c-.08-.45-.15-.88-.22-1.29a12.42,12.42,0,0,0,1.47.08,14,14,0,0,0,1.75-.11,12.83,12.83,0,0,0-1.75-.12c-.63,0-1.17,0-1.48.08,0-.19-.07-.39-.1-.57.39,0,1.09.08,1.9.08C50,45,51,44.91,51,44.91a20.89,20.89,0,0,0-2.23-.12c-.82,0-1.52.05-1.91.09,0-.21-.07-.42-.1-.61.33,0,2.29.12,4.68.12,2.62,0,4.74-.12,4.74-.12s-2.12-.11-4.74-.11c-2.4,0-4.35.09-4.68.11,0-.2-.06-.37-.08-.54.34,0,1.28.1,2.4.1,1.41,0,2.56-.12,2.56-.12s-1.15-.11-2.56-.11c-1.12,0-2.07.07-2.41.1,0-.17,0-.31-.06-.46.73,0,3.06.11,5.82.11,3.35,0,6.06-.12,6.06-.12s-2.71-.11-6.06-.11c-2.77,0-5.1.08-5.82.11,0-.14,0-.26,0-.37h4a3,3,0,0,0,3-3V35a2.79,2.79,0,0,0,.77.11,3,3,0,0,0,.82-.12,3,3,0,0,0-.82-.12,2.79,2.79,0,0,0-.77.11v-.51a6.66,6.66,0,0,0,.89.06,6.52,6.52,0,0,0,1.19-.11,6,6,0,0,0-1.19-.12,6.42,6.42,0,0,0-.89.07v-.75c.46,0,1.43.1,2.57.1,1.58,0,2.86-.12,2.86-.12s-1.28-.11-2.86-.11c-1.14,0-2.11.06-2.57.09V33a5,5,0,0,0,.77.06,5.17,5.17,0,0,0,1.06-.11,4.76,4.76,0,0,0-1.06-.12,5,5,0,0,0-.77.06v-.48c.4,0,1.07.08,1.83.08a20.5,20.5,0,0,0,2.21-.12s-1-.11-2.21-.11c-.76,0-1.43,0-1.83.08v-.6C54.11,31.73,55.33,31.8,56.75,31.8ZM53.6,25.56h1.83a.52.52,0,0,1,.53.52v4.69a.53.53,0,0,1-.53.53H53.6ZM34.82,11.61l.6,0a6.67,6.67,0,0,1-.21,2.23l0,.08h-.69A7.62,7.62,0,0,0,34.82,11.61Zm7.92,18.54,0-.09h0l.2-.19.2-.27.08-.13a.48.48,0,0,0-.16,0,.74.74,0,0,0-.32.22.6.6,0,0,0-.13.25,7.7,7.7,0,0,1-1.57-2.12,1.76,1.76,0,0,0-.12-.2,3.08,3.08,0,0,1,0-.33c0-.16,0-.3,0-.41v-.19a.74.74,0,0,0-.13.16.86.86,0,0,0-.11.45,2.12,2.12,0,0,0-.37-.19L40,27A32,32,0,0,1,36.47,25c-.74-.76-.94-1.24-.82-1.38s1,.06,1.58.22l.13,0,.91.33a21.41,21.41,0,0,0,2.26.76h0A11,11,0,0,1,42.93,26l.53.68c.48.64,1.14,1.51,1.62,2,.7.76,1,1,1,1s-1.85-2.55-2.33-3.18c-.24-.32-.43-.57-.54-.69a4.6,4.6,0,0,0-1.33-.73,5.23,5.23,0,0,1,1.6.39,41.36,41.36,0,0,1,3.33,4.24,3.84,3.84,0,0,0,.93,1,1.06,1.06,0,0,1,.48.63,3,3,0,0,1-.28,1.84c-.09.24-.18.48-.26.75-.23.76-.45,1.52-.56,1.87l-4-4.16h0A2.77,2.77,0,0,1,42.74,30.15Zm-.16,1-4.94-5.13c.9.53,1.94,1.08,2.21,1.22l.3.13a1,1,0,0,1,.62.59,8.06,8.06,0,0,0,1.66,2.22A2.21,2.21,0,0,0,42.58,31.18ZM47.94,34c.07-.26.16-.5.25-.74a3.09,3.09,0,0,0,.28-2,1.34,1.34,0,0,0-.57-.76A3.72,3.72,0,0,1,47,29.6l-.39-.55-.09-9.8H33.09c0-.1,0-.2.06-.31a6.68,6.68,0,0,1,.32-.77H47.3A1.84,1.84,0,0,1,49.14,20V36.53a1.84,1.84,0,0,1-.36,1.08L47.32,36.1ZM26.85,26.32h.22l.59,0a8.28,8.28,0,0,0,1.92-.43A8,8,0,0,0,31.34,25l.29-.2h0v.37a1.22,1.22,0,0,1-.09.46l-.07,0-.69.3-.69.33-.28.15a2.39,2.39,0,0,0,.32,0,2.76,2.76,0,0,0,.75-.22,2.91,2.91,0,0,0,.35-.2l.1-.07.05,0a.83.83,0,0,1-.11.15l-.64.66H27.21l-.58-.53a1.42,1.42,0,0,1-.25-.3l0-.09a1.28,1.28,0,0,1-.14-.34h0l.09,0,.11,0,.28,0a4.41,4.41,0,0,0,.76,0,5.11,5.11,0,0,0,.92-.11,4.77,4.77,0,0,0,.88-.3,5,5,0,0,0,.67-.37c.17-.12.31-.22.4-.3l.14-.12-.16.09c-.1.06-.26.13-.45.22a5,5,0,0,1-.68.28,7.86,7.86,0,0,1-.85.25,8.11,8.11,0,0,1-.88.15l-.39,0h-.85a2.48,2.48,0,0,1,0-.27V24.5h0c.16,0,.38,0,.65,0A9.1,9.1,0,0,0,29,24.3a8.6,8.6,0,0,0,2-.78,6.47,6.47,0,0,0,.56-.33l.08-.05v1.55h0l-.34.17a16,16,0,0,1-1.78.75,15.12,15.12,0,0,1-1.85.53l-.58.13-.21,0Zm-8.19,1.62v.65H21v8.69H37c0,.33,0,.7.07,1.09H12v-8.1h.84V26.59h-.36c0-.79,0-1.75,0-2.79,0-2.66-.06-4.81-.06-4.81s-.06,2.15-.06,4.81c0,1,0,2,0,2.79H12V18.17H24.52a.59.59,0,0,1,0,.08,2.18,2.18,0,0,1,.09.23l-1.16,0c-1.35,0-2.45.08-2.45.08s1.1.09,2.45.09l1.21,0a4.18,4.18,0,0,1,.2.64H21v8.69Zm2.34.11v.44H18.76v-.44Zm1.79-13.29c.07.17.15.34.23.52.23.46.48.93.73,1.39s.44.83.63,1.22H12V15.31a1.15,1.15,0,0,1,1.14-1.15h9.43c.05.15.1.29.16.43s0,0,0,.05l-.31.06Zm1-.5h0l0-.07v0H26.7l.95,2.18h0V17h0a.16.16,0,0,0-.06.12v.77H26.28l0,0h0v0h-.57l-.14-.16a.46.46,0,0,0-.1-.07l0,0,0,0,.07.1a.76.76,0,0,1,.07.13h-.83c-.21-.44-.46-.9-.72-1.38s-.61-1.16-.88-1.73h0A3.7,3.7,0,0,0,24,14.7a3.31,3.31,0,0,0-.76-.09h-.1a4.22,4.22,0,0,1-.18-.45h.84l.06.1Zm5.49,7V20.9h.49v.39Zm.49.1v.29H29.3V21.4Zm-.49-.59V19.36h.49v1.43Zm0-1.54v-.54a1,1,0,0,0,.28-.08,1,1,0,0,0-.28-.08v-.38h.49v1.08Zm0-1.36a.44.44,0,0,0-.42-.33.42.42,0,0,0-.41.33H28v-.77a.16.16,0,0,0-.05-.11s0,0-.06,0l-.05,0v-.63a0,0,0,0,0,0,0l-.72-1.65a1,1,0,0,0,.28,0,1,1,0,0,0,.4-.09,1,1,0,0,0-.4-.09.81.81,0,0,0-.31.06l-.18-.42h4l-.94,2.14v.64a.16.16,0,0,0-.05.11v.84Zm-.11.82v.54h-.62V18.17h.62v.37a.9.9,0,0,0-.34.09A1,1,0,0,0,29.17,18.71Zm-.62,2.56V20.9h.62v.38Zm.62.13v.27h-.62v-.26Zm-.62-.61V19.36h.62v1.43Zm0-2.9s0-.08.05-.11a.3.3,0,0,1,.22-.1.31.31,0,0,1,.27.21ZM28,21.26V20.9h.46v.37Zm.46.15v.26H28v-.25ZM28,20.79V19.36h.46v1.43Zm0-1.54v-.59h.12a.9.9,0,0,0,.34-.06v.64Zm.12-.75H28v-.34h.46v.39A.9.9,0,0,0,28.08,18.5Zm-1.36-4.61L25.9,12h0a.52.52,0,0,1,.1.11l0,0a.71.71,0,0,1,.08.15c.1.18.21.38.43.38s.34-.2.43-.38.17-.32.32-.32.24.15.32.32.21.38.43.38.34-.2.44-.38.17-.32.32-.32.23.15.31.32.21.38.44.38a.32.32,0,0,0,.14,0,.56.56,0,0,0,.21-.22l.08-.13c.08-.17.17-.32.32-.32s.23.15.32.32.2.38.43.38a.36.36,0,0,0,.26-.12,1.45,1.45,0,0,0,.17-.26.78.78,0,0,1,.11-.18v0a.33.33,0,0,1,.14-.1h0l-.83,1.89Zm-.26,6.9a1.51,1.51,0,0,1-.2-.48,5.42,5.42,0,0,1-.12-.77,1.1,1.1,0,0,0,0-.18h.28v0a2,2,0,0,0,.1.34,2.7,2.7,0,0,0,.11.31s0-.12,0-.33,0-.21,0-.34h1v1.43Zm1.16.11v.36H26.9l-.1-.06-.14-.12a1.15,1.15,0,0,1-.14-.17Zm-1.51-1.65c0-.17,0-.35-.06-.51a2.53,2.53,0,0,0-.2-.57h.46c0,.2,0,.45,0,.77a1.55,1.55,0,0,0,0,.31Zm.73-.19a.69.69,0,0,0,.07.19H26.6c0-.1,0-.21,0-.33l0-.24a1.2,1.2,0,0,0,.28,0,1,1,0,0,0,0,.17h0A.9.9,0,0,0,26.84,19.06Zm.15.19a.71.71,0,0,0,.06-.19.5.5,0,0,0,0-.18h0a.47.47,0,0,0,0-.17h0a2.25,2.25,0,0,0,.29-.07,2,2,0,0,0-.33-.08,1.1,1.1,0,0,0-.06-.12.58.58,0,0,0-.06.11h-.05a2.16,2.16,0,0,0-.29,0,.25.25,0,0,0,0-.08,1.34,1.34,0,0,0-.1-.32h1.18v1.08Zm-1.19-.71L25,18.49c0-.11-.07-.21-.12-.32h.82A1.82,1.82,0,0,1,25.8,18.54Zm-4.69.82h3.81a1,1,0,0,1,0,.17A3.5,3.5,0,0,0,25,20s0,.09,0,.14,0,.2.07.3a.88.88,0,0,0,.05.15l.06.19H21.11Zm4.13-.11a4.24,4.24,0,0,0-.19-.66l.75,0a1.43,1.43,0,0,1,0,.22c0,.14,0,.32,0,.48Zm.64.11c0,.07,0,.13,0,.2a3.32,3.32,0,0,0,.16.81,1.52,1.52,0,0,0,.23.42h-.67a4.14,4.14,0,0,1-.32-1.28.66.66,0,0,0,0-.15Zm.48,1.54.05.06a1.26,1.26,0,0,0,.37.27l.08,0h-1l-.18-.36Zm0,.53h1.23v.25H26.08c0-.05-.09-.14-.16-.25Zm5.23,1.69-.09,0-.25.11-.34.14a16.94,16.94,0,0,1-2,.64,11,11,0,0,1-1.14.23c-.35.06-.67.1-.94.13l-.37,0-.28,0h0V23.27h.28a13.59,13.59,0,0,0,2.43-.12,7.26,7.26,0,0,0,2.33-.74l.42-.23h0v.94Zm0-1-.45.2a10.77,10.77,0,0,1-2.31.6c-.93.14-1.78.2-2.4.24l-.28,0v-.25a2.88,2.88,0,0,0,.6-.08,2.88,2.88,0,0,0-.6-.08v-.32h.08a10.61,10.61,0,0,0,1.3-.08,9.45,9.45,0,0,0-1.3-.09h-.08V22h5.47v.09Zm-1.48-.44v-.29l1.17,0-1.17,0v-.4h2.22a5.1,5.1,0,0,1-.43.77Zm0-.88V19.36H32s0,.05,0,.07a1.07,1.07,0,0,0,0,.17l.09-.15,0-.09h.53a1,1,0,0,1,0,.15,3.88,3.88,0,0,1-.31,1.28Zm2.12-1.54a.59.59,0,0,0,.06-.14,1.52,1.52,0,0,0,.08-.38.78.78,0,0,0,0-.17,1.06,1.06,0,0,0-.12.12,1,1,0,0,0-.2.35,2.07,2.07,0,0,0,0,.22h-1.9V18.17h3a4.76,4.76,0,0,0-.27.7,2,2,0,0,0-.08.38Zm1-1.36h-.49a.38.38,0,0,0,.11-.16.47.47,0,0,0,0-.22.39.39,0,0,0,0-.12.36.36,0,0,0-.1.05.47.47,0,0,0-.18.19.4.4,0,0,0,0,.26H30.12v-.84a.15.15,0,0,0,0-.11s0,0-.07,0l-.05,0v-.2c0-.1,0-.19,0-.25v-.1l1-2.18H33.8v.05l0-.05h.46a1.13,1.13,0,0,0,0,.15c-.1.39-.2.69-.27.91l-.11.32.15-.31c.09-.2.22-.5.35-.88l.06-.19h.67a20.16,20.16,0,0,1-1.14,2.35l-.44.84C33.4,17.54,33.32,17.71,33.23,17.89Zm.87-4.45a4.59,4.59,0,0,0,.19-.89,4.82,4.82,0,0,0,0-.94h.25a9.12,9.12,0,0,1-.24,2.28h-.39a1,1,0,0,1,.05-.12C34,13.67,34.07,13.57,34.1,13.44ZM23.56,9.85,24,10c0,.22-.06.45-.08.69a5.36,5.36,0,0,0,.15,2,3.25,3.25,0,0,0,.22.55c0,.07.06.11.08.15l0,0h0l-.07-.2a4.3,4.3,0,0,1-.14-.57,7.13,7.13,0,0,1-.06-1.37c0-.17,0-.36,0-.54s0-.38,0-.55,0-.07,0-.1l.33.09a1.42,1.42,0,0,0-.05.22,1.77,1.77,0,0,0,.07.65,1.87,1.87,0,0,0,.11.26l0-.27c0-.16,0-.38,0-.62a1.23,1.23,0,0,0,0-.19l.35.1a.51.51,0,0,0,0,.13,1.1,1.1,0,0,0,.08.41,1.63,1.63,0,0,0,.09.16s0-.07,0-.17a2.13,2.13,0,0,0,0-.39v-.08l.32.08a.64.64,0,0,0,0,.07l.06.1.09.06a.39.39,0,0,0,0-.1s0,0,0-.07l.46.11.09.11,0-.08c.92.23,1.86.45,2.8.61a29.85,29.85,0,0,0,3.79.38c0,.08.05.16.07.23l0,.16,0,.06a1.05,1.05,0,0,0,0-.24,1.34,1.34,0,0,0,0-.21h.31c0,.29.05.57.05.79v.45s0-.09.07-.26,0-.11,0-.18.05-.31.06-.5a1.53,1.53,0,0,0,0-.3h.29a7.3,7.3,0,0,1,0,.93,6.71,6.71,0,0,1-.1.88c0,.13,0,.24-.07.34l0,.14H31.06L31.89,12h0a.06.06,0,0,0,0-.08h0a.08.08,0,0,0-.06,0c-.23,0-.34.21-.43.39s-.17.32-.32.32-.24-.16-.32-.32-.21-.39-.43-.39-.34.21-.43.39-.17.32-.32.32-.24-.16-.32-.32-.21-.39-.43-.39-.34.21-.44.39-.17.32-.32.32-.23-.16-.31-.32-.21-.39-.44-.39-.33.21-.43.39-.17.32-.32.32-.23-.16-.32-.32-.2-.39-.43-.39a.06.06,0,0,0-.06.06,0,0,0,0,0,0,0v0h0l.84,1.91H23.67c-.06-.18-.13-.4-.2-.69a6.75,6.75,0,0,1-.07-2.62C23.44,10.33,23.5,10.08,23.56,9.85Zm-.66-.17.43.11a5.87,5.87,0,0,0-.18.75,5.48,5.48,0,0,0,0,1.5,5.86,5.86,0,0,0,.25,1.2c.06.16.11.31.17.44a1.36,1.36,0,0,0,.1.21H22.8l0-.08A7.6,7.6,0,0,1,22.9,9.68ZM11.7,15.31V26.59H9.84A1.83,1.83,0,0,0,8.06,28a1.87,1.87,0,0,1-1.18-1.06,3.29,3.29,0,0,1-.36-2.58A3.26,3.26,0,0,0,9.23,25c.94-.25,1.88-1.22,1.49-2.25s-1.87-1.23-2.82-.88A3.36,3.36,0,0,0,6.32,23.2c-1.21-1.51-1.07-4.07-.7-5.84a11.29,11.29,0,0,1,3.49-6.23C13,7.77,18,8.43,22.55,9.59h0a7.57,7.57,0,0,0-.33,1.64,7.94,7.94,0,0,0,0,.83,6.3,6.3,0,0,0,.24,1.82H13.93c1.49,0,2.56-.1,2.56-.1s-1.79-.12-4-.12-4,.12-4,.12,1.79.11,4,.11H13A1.42,1.42,0,0,0,11.7,15.31ZM6.82,23.7a2.43,2.43,0,0,1,2.23-1.28c.83.08,1.4.83.69,1.5a1.9,1.9,0,0,1-1.94.31A3.29,3.29,0,0,1,6.82,23.7ZM37.15,38.93a.43.43,0,0,0-.21,0,.57.57,0,0,0-.29.09.57.57,0,0,0,.29.09.6.6,0,0,0,.22-.05,1.38,1.38,0,0,0,0,.2.43.43,0,0,0,0,.11l-.23,0a1.47,1.47,0,0,0-.47.08,1.32,1.32,0,0,0,.47.09,1,1,0,0,0,.25,0c0,.09,0,.18.05.26a2.27,2.27,0,0,0-.48-.06,1.94,1.94,0,0,0-.57.09,1.94,1.94,0,0,0,.57.09,1.77,1.77,0,0,0,.49-.07c0,.1.05.19.07.28a5.9,5.9,0,0,0-1-.08A6.47,6.47,0,0,0,35.3,40a6.47,6.47,0,0,0,1.07.09,5.94,5.94,0,0,0,1-.08,3.64,3.64,0,0,0,.11.39c-.42,0-1.44-.07-2.65-.07-1.57,0-2.85.09-2.85.09s1.28.08,2.85.08c1.22,0,2.25,0,2.66-.07,0,.15.11.3.17.45a.69.69,0,0,0-.3-.07.88.88,0,0,0-.37.09.88.88,0,0,0,.37.09,1,1,0,0,0,.32-.07c0,.08.07.16.12.25a2,2,0,0,0-.46-.05,2.56,2.56,0,0,0-.66.09,2.56,2.56,0,0,0,.66.09,2.87,2.87,0,0,0,.5-.05c.13.23.28.47.45.73a5.91,5.91,0,0,0-.88-.06,6.47,6.47,0,0,0-1.07.09,7.26,7.26,0,0,0,1.07.08,8.19,8.19,0,0,0,.92-.06l.22.31c-.3,0-.93-.06-1.66-.06-1,0-1.87.1-1.87.1s.84.08,1.87.08c.75,0,1.39-.06,1.69-.09a1.09,1.09,0,0,0,.13.17H13.12A1.14,1.14,0,0,1,12,41.44v-2.8H37.11A2.89,2.89,0,0,1,37.15,38.93Zm-.06-3.08A11.56,11.56,0,0,0,37,37.18H21.11V35.74h16S37.09,35.82,37.09,35.85Zm-1.88-4.93a5.64,5.64,0,0,0,.64,1.49,7.24,7.24,0,0,1,.44.84c.05.11.09.23.15.34a6.57,6.57,0,0,1,.64,2h-16V20.9h4.17l0,.08.09.21,0,.07c-2.26,0-4,.08-4,.08s1.75.07,4,.08l0,0a.93.93,0,0,1,.05.1l.09.13,0,.06,0,0c-1.57,0-2.81.08-2.81.08s1.28.09,2.88.09v.32a8.46,8.46,0,0,0-.89.08s.38.05.89.07v.34a3.09,3.09,0,0,0-.47.07,3.94,3.94,0,0,0,.47.08v.27l-.28,0h.28v1.84a1.78,1.78,0,0,0,.57,1.3l1,.86a2.09,2.09,0,0,0,1.39.53h.47a1.91,1.91,0,0,0,1.36-.57l.94-1A1.55,1.55,0,0,0,32,25.14v-.62l0,0h0V22h.1l0-.07a4.37,4.37,0,0,0,.58-1H46.43v-.11H32.74A4.49,4.49,0,0,0,33,19.53a1,1,0,0,1,0-.17H46.44l.09,9.54a33.41,33.41,0,0,0-2.89-3.6,7.69,7.69,0,0,0-2.33-.52,14.18,14.18,0,0,1-2.91-.88c-.38-.14-.71-.27-.93-.33l-.13,0c-.78-.24-1.6-.49-1.92-.13a.47.47,0,0,0-.1.39,1,1,0,0,0,.07.2,6.16,6.16,0,0,0-1.72-.72l-.32-.43a.44.44,0,0,0-.3-.18.36.36,0,0,0-.28.07.33.33,0,0,0-.16.24.17.17,0,0,0,0,.1.53.53,0,0,0,.13.25l.32.36a.58.58,0,0,0,0,.15,5.71,5.71,0,0,0,2,3.28,1.24,1.24,0,0,0-.26,1A25.61,25.61,0,0,0,35.21,30.92Zm-1.85-7.55-.11.07L33,23.13a.19.19,0,0,1-.07-.14s0,0,0,0l.05,0a.2.2,0,0,1,.1.08Zm3.24,4.75a.59.59,0,0,1-.29.19l-.39.1a.93.93,0,0,1-.33,0,.5.5,0,0,1-.25-.15,1.21,1.21,0,0,1-.2-.19L35.07,28a.9.9,0,0,1,.65-1,.85.85,0,0,1,.76.17,1.4,1.4,0,0,1,.12.18.81.81,0,0,1,.12.52A.58.58,0,0,1,36.6,28.12Zm2.46,2.4c-.46-1.3-1.06-2.76-2.19-3.44a1.23,1.23,0,0,0-1.21-.39,1,1,0,0,0-.42.2,5.51,5.51,0,0,1-1.87-3.19l.23-.15a5.41,5.41,0,0,1,2.2,1.1h0c.12.15.26.31.43.49a3,3,0,0,0,.39.29L49.08,38.29a2.69,2.69,0,0,0-.57.33,2.44,2.44,0,0,0-.62.68Zm11,8.75a1.66,1.66,0,0,0-.61.31,1.74,1.74,0,0,0-.56.68.19.19,0,0,1-.1,0s0,0,0,0h0c0-.11.19-.43.6-.75s.59-.34.67-.32h0S50.05,39.24,50.05,39.27Zm0,.28a1.82,1.82,0,0,1-.46.51,1.38,1.38,0,0,1-.43.24,1.63,1.63,0,0,1,.47-.51A1.27,1.27,0,0,1,50.05,39.55Zm-.78-.17a2.16,2.16,0,0,0-.62.68l-.53-.54h0a1.5,1.5,0,0,1,.58-.69,1.48,1.48,0,0,1,.6-.31l.53.54A2.12,2.12,0,0,0,49.27,39.38Zm4-14.75-.26,0,.26,0v7h0v.64h0v.56h0v.73h0v.82h0v5.36a2.77,2.77,0,0,1-2.76,2.76h-4c0-.11,0-.22,0-.33.32,0,1.08.07,2,.07,1.18,0,2.14-.08,2.14-.08s-1-.09-2.14-.09c-.89,0-1.65.05-2,.07,0-.11,0-.22,0-.32.27,0,.9.07,1.64.07,1,0,1.79-.09,1.79-.09s-.81-.08-1.79-.08c-.74,0-1.37.05-1.64.07,0-.1,0-.2,0-.3a6.36,6.36,0,0,0,.85,0,7.86,7.86,0,0,0,1.18-.09,8.82,8.82,0,0,0-1.18-.08c-.34,0-.64,0-.85,0v-.41h.27A2.41,2.41,0,0,0,47.4,41a2.68,2.68,0,0,0-.64-.08h-.27a1.27,1.27,0,0,1,0-.2h.2a1.68,1.68,0,0,0,.53-.09,1.87,1.87,0,0,0-.53-.08h-.19c0-.19,0-.38,0-.55a.92.92,0,0,0,.33-.08.81.81,0,0,0-.31-.08,8.84,8.84,0,0,1,.23-1.32l1,1s0,0,0,0v0h0l.81.8v0s0,0,0,0h.12a.25.25,0,0,0,.16.14c.25.06.62-.2.76-.31.33-.26.66-.64.59-.86a.23.23,0,0,0-.15-.14.31.31,0,0,0,0-.13s0,0-.06,0h0L49,37.81a2.05,2.05,0,0,0,.45-1.28V20a2.12,2.12,0,0,0-2.12-2.12H33.6c.19-.39.41-.8.64-1.22s.5-.93.72-1.39a9.67,9.67,0,0,0,.48-1.12H50.53a2.76,2.76,0,0,1,2.1,1l-.17,0,.2,0a2.66,2.66,0,0,1,.59,1.27h0a3.27,3.27,0,0,1,0,.44Z" style="fill:#fff"/><path d="M61.94,31.4a2.4,2.4,0,0,0-.74.12,2.54,2.54,0,0,0,1.48,0A2.4,2.4,0,0,0,61.94,31.4Z" style="fill:#fff"/><path d="M59.82,22.69a2.82,2.82,0,0,0-1.56,0,2.6,2.6,0,0,0,1.56,0Z" style="fill:#fff"/><path d="M62.27,22.69a2.32,2.32,0,0,0-.7-.11,2.29,2.29,0,0,0-.69.11,2.12,2.12,0,0,0,.69.12A2.15,2.15,0,0,0,62.27,22.69Z" style="fill:#fff"/><path d="M57.85,21.55a2.84,2.84,0,0,0-.81-.12,3,3,0,0,0-.82.12,3.21,3.21,0,0,0,.82.11A3.08,3.08,0,0,0,57.85,21.55Z" style="fill:#fff"/><path d="M8.91,31.68a7.6,7.6,0,0,0,2.69,0,7.6,7.6,0,0,0-2.69,0Z" style="fill:#fff"/><path d="M10.75,32.05a3.81,3.81,0,0,0-.94.12,3.81,3.81,0,0,0,.94.12,3.91,3.91,0,0,0,.94-.12A3.91,3.91,0,0,0,10.75,32.05Z" style="fill:#fff"/><path d="M10.91,32.63a1.79,1.79,0,0,0-.61.11,1.61,1.61,0,0,0,1.22,0A1.79,1.79,0,0,0,10.91,32.63Z" style="fill:#fff"/><path d="M11,33.2a.87.87,0,0,0-.41.11.76.76,0,0,0,.82,0A.87.87,0,0,0,11,33.2Z" style="fill:#fff"/><path d="M11.52,34.21a.5.5,0,0,0-.28-.11.5.5,0,0,0-.29.11.48.48,0,0,0,.29.12A.48.48,0,0,0,11.52,34.21Z" style="fill:#fff"/><path d="M56.3,17.59a1.52,1.52,0,0,0-.57.12,1.63,1.63,0,0,0,.57.11,1.56,1.56,0,0,0,.57-.11A1.45,1.45,0,0,0,56.3,17.59Z" style="fill:#fff"/><path d="M59.24,17.63a.67.67,0,0,0-.36-.12.68.68,0,0,0-.37.12.72.72,0,0,0,.37.11A.71.71,0,0,0,59.24,17.63Z" style="fill:#fff"/><path d="M56.34,19.62A1.75,1.75,0,0,0,57,19.5a1.89,1.89,0,0,0-.62-.11,1.79,1.79,0,0,0-.61.11A1.66,1.66,0,0,0,56.34,19.62Z" style="fill:#fff"/><path d="M59.33,19.59a1,1,0,0,0,.44.11,1,1,0,0,0,.45-.11,1,1,0,0,0-.45-.12A1,1,0,0,0,59.33,19.59Z" style="fill:#fff"/><path d="M45.45,13.13c2.84,0,5.15-.11,5.15-.11s-2.31-.12-5.15-.12S40.3,13,40.3,13,42.61,13.13,45.45,13.13Z" style="fill:#fff"/><path d="M46.5,12.5a8.76,8.76,0,0,0,1.37-.11,7.88,7.88,0,0,0-2.74,0A8.76,8.76,0,0,0,46.5,12.5Z" style="fill:#fff"/><path d="M48.36,11.76a4.65,4.65,0,0,0-2.1,0,5.07,5.07,0,0,0,2.1,0Z" style="fill:#fff"/><path d="M15.16,13.16a11.4,11.4,0,0,0-3.3,0,12.43,12.43,0,0,0,3.3,0Z" style="fill:#fff"/><path d="M14,12.53a1.64,1.64,0,0,0-.6-.12,1.56,1.56,0,0,0-.59.12,1.67,1.67,0,0,0,.59.11A1.77,1.77,0,0,0,14,12.53Z" style="fill:#fff"/><path d="M14.67,11.9a3.61,3.61,0,0,0-.91-.12,3.51,3.51,0,0,0-.91.12,3.81,3.81,0,0,0,.91.11A3.91,3.91,0,0,0,14.67,11.9Z" style="fill:#fff"/></svg>