<svg id="Layer_1" data-name="Layer 1" xmlns="http://www.w3.org/2000/svg" viewBox="0 0 34.5 36.22"><path d="M32.8,36.22H1.71A1.46,1.46,0,0,1,.25,34.76V2A1.46,1.46,0,1,1,3.16,2V33.3H32.8a1.46,1.46,0,0,1,0,2.92ZM1.71,1a1,1,0,0,0-1,1V34.76a1,1,0,0,0,1,1H32.8a1,1,0,0,0,0-1.94H2.68V2A1,1,0,0,0,1.71,1Z" style="fill:#fff"/><path d="M10,31.6H4.7V21H10Zm-4.82-.49H9.53V21.5H5.19Z" style="fill:#fff"/><path d="M17.52,31.6H12.21V23.71h5.31Zm-4.82-.49H17V24.19H12.7Z" style="fill:#fff"/><path d="M25,31.6H19.72V19.67H25Zm-4.82-.49h4.34v-11H20.21Z" style="fill:#fff"/><path d="M32.54,31.6H27.23v-16h5.31Zm-4.83-.49h4.35v-15H27.71Z" style="fill:#fff"/><path d="M4.35,19a1.44,1.44,0,0,1-1-.43,1.45,1.45,0,0,1,0-2.06l6.33-6.33a1.49,1.49,0,0,1,2.06,0l3.92,3.92L20.7,9,17.78,6.1,31.58.39,25.87,14.18l-3.11-3.1-6.1,6.11a1.56,1.56,0,0,1-2.06,0l-3.92-3.92-5.3,5.3A1.42,1.42,0,0,1,4.35,19Zm6.33-8.76a1,1,0,0,0-.68.28L3.67,16.85a1,1,0,0,0,0,1.38,1,1,0,0,0,1.37,0l5.64-5.65,4.26,4.26a1,1,0,0,0,1.38,0l6.44-6.45,2.94,2.94,5-12-12,5L21.39,9l-5.76,5.76-4.26-4.26A1,1,0,0,0,10.68,10.24Z" style="fill:#fff"/></svg>