<svg id="Layer_1" data-name="Layer 1" xmlns="http://www.w3.org/2000/svg" viewBox="0 0 26.27 40.61"><path d="M22.09,32.1h-2V23.72h2Zm-1.56-.49h1.08V24.2H20.53Z" style="fill:#fff"/><path d="M19.86,32.1h-2V25.82h2Zm-1.56-.49h1.08V26.3H18.3Z" style="fill:#fff"/><path d="M17.63,32.1h-2V28.58h2Zm-1.56-.49h1.08V29.06H16.07Z" style="fill:#fff"/><path d="M17.19,17.3H9.89V10h7.3Zm-6.82-.48h6.34V10.48H10.37Z" style="fill:#fff"/><path d="M9.56,20.84H6.26V17.53h3.3Zm-2.82-.48H9.08V18H6.74Z" style="fill:#fff"/><path d="M6.38,16.72H.25V10.58H6.38ZM.73,16.23H5.9V11.06H.73Z" style="fill:#fff"/><path d="M12.39,9.43H7.86V4.9h4.53ZM8.35,9h3.56V5.38H8.35Z" style="fill:#fff"/><path d="M6.48,9.18H3.08V5.78h3.4ZM3.56,8.7H6V6.26H3.56Z" style="fill:#fff"/><path d="M8.35,4.61H4.65V.79h3.7ZM5.13,4.13H7.86V1.27H5.13Z" style="fill:#fff"/><path d="M18.9,5.38H14.71V1.2H18.9ZM15.19,4.9h3.23V1.68H15.19Z" style="fill:#fff"/><path d="M21.26,40.36H7a5,5,0,0,1-4.76-5.14V17.65H5.07V30A2.16,2.16,0,0,0,7,32.28H21.26A2.16,2.16,0,0,0,23.2,30V10.65a2.56,2.56,0,0,0,0-.47,2.07,2.07,0,0,0-1.9-1.85h-8.5V5.51h8.5A5,5,0,0,1,26,10.65V35.22A5,5,0,0,1,21.26,40.36ZM2.73,18.13V35.22A4.49,4.49,0,0,0,7,39.88H21.26a4.49,4.49,0,0,0,4.28-4.66V10.65A4.49,4.49,0,0,0,21.26,6h-8V7.85h8a2.56,2.56,0,0,1,2.38,2.25,3.39,3.39,0,0,1,0,.55V30a2.63,2.63,0,0,1-2.42,2.8H7A2.64,2.64,0,0,1,4.59,30V18.13ZM14.14,38.68a2,2,0,1,1,0-4.07,2,2,0,1,1,0,4.07Zm0-3.59a1.56,1.56,0,1,0,0,3.1,1.56,1.56,0,1,0,0-3.1Zm8.17,2.23H18.1V36h4.21Zm-3.73-.48h3.25v-.39H18.58Zm-8.41.48H6V36h4.21Zm-3.73-.48H9.69v-.39H6.44Z" style="fill:#fff"/></svg>