<svg id="Layer_1" data-name="Layer 1" xmlns="http://www.w3.org/2000/svg" viewBox="0 0 44.35 42.84"><path d="M19.69,19.94H13.5a.17.17,0,0,0,0,.34H30.82a.17.17,0,1,0,0-.34H24.63a10.09,10.09,0,0,0,7.62-9.77h0a10,10,0,0,0-1.89-5.86h0s0,0-.05-.06A10.15,10.15,0,0,0,24.38.33h6.44A.17.17,0,0,0,31,.17.17.17,0,0,0,30.82,0H13.5a.16.16,0,0,0-.16.17.16.16,0,0,0,.16.16h6.44A10.08,10.08,0,0,0,14,4.21.14.14,0,0,0,14,4.3h0a10.07,10.07,0,0,0-1.89,5.86h0A10.09,10.09,0,0,0,19.69,19.94ZM14.2,4.55c.78.26,1.56.48,2.34.67V5.3a1.2,1.2,0,0,0,.76,1.11A18.81,18.81,0,0,0,16.92,10H12.41A9.72,9.72,0,0,1,14.2,4.55Zm4.07-.32c.9-2.31,2.28-3.7,3.72-3.8V5.54h-.06l-.85,0-.64,0c-.42,0-.83-.08-1.24-.13l-.27,0v0a1.26,1.26,0,0,0-.08-.43.3.3,0,0,1,0-.08,1.41,1.41,0,0,0-.21-.31l0,0A1.08,1.08,0,0,0,18.27,4.23ZM31.91,10H27.4a17.72,17.72,0,0,0-.61-4.58,25.26,25.26,0,0,0,3.34-.87A9.71,9.71,0,0,1,31.91,10Zm-1.66,5.62c-.81-.28-1.63-.51-2.42-.7a1.17,1.17,0,0,0-.27-.86,1.21,1.21,0,0,0-.49-.34,18.65,18.65,0,0,0,.33-3.39h4.51A9.64,9.64,0,0,1,30.25,15.62Zm-4.12.3c-.9,2.42-2.31,3.88-3.8,4V14.59a23.27,23.27,0,0,1,3.12.23v0a1,1,0,0,0,.09.42.36.36,0,0,0,0,.09,1,1,0,0,0,.2.3l0,0A1.19,1.19,0,0,0,26.13,15.92Zm-9.32-1.08a.87.87,0,0,1,.87-.86h0a.85.85,0,0,1,.85,1,.78.78,0,0,1-.09.27l-.05.07a.79.79,0,0,1-.12.15l-.06,0a.82.82,0,0,1-.2.12l0,0a.93.93,0,0,1-.29.05A.87.87,0,0,1,16.81,14.84Zm.76-1.19a18.79,18.79,0,0,1-.31-3.32H22v3.93a26.14,26.14,0,0,0-3.17.23,1.15,1.15,0,0,0-.23-.42,1,1,0,0,0-.41-.31,1.08,1.08,0,0,0-.5-.11h-.11Zm.11-7.17h.05l.16,0a1.08,1.08,0,0,0,.19,0l.18-.08a.91.91,0,0,0,.17-.09l.14-.13s.1-.09.14-.14l.08-.16a1.11,1.11,0,0,0,.09-.19l.16,0c.45.06.91.1,1.37.14l.63,0c.3,0,.59,0,.89,0H22V10H17.26a18.08,18.08,0,0,1,.35-3.51Zm9,7.16h0a1.21,1.21,0,0,0-1.11.73s0,.08,0,.12a24.32,24.32,0,0,0-3.19-.23V10.33h4.74a18,18,0,0,1-.32,3.32Zm-8.21,2.12,0,0a1,1,0,0,0,.2-.25l.06-.09a1.45,1.45,0,0,0,.12-.35.81.81,0,0,0,0-.22A25.19,25.19,0,0,1,22,14.59v5.32c-1.49-.11-2.89-1.57-3.79-4A1,1,0,0,0,18.45,15.76Zm7.89-.12-.07,0a.63.63,0,0,1-.2-.13L26,15.41a1.27,1.27,0,0,1-.13-.19l0-.07a.82.82,0,0,1-.07-.31.94.94,0,0,1,.07-.34.87.87,0,0,1,.8-.53h0a.87.87,0,0,1,.65.3.88.88,0,0,1,.19.7.87.87,0,0,1-.85.72A.78.78,0,0,1,26.34,15.64ZM26.47,5.5a17.48,17.48,0,0,1,.6,4.5H22.33V5.87h.25L24,5.8l.5,0c.58,0,1.17-.14,1.75-.23Zm-.31-.3c-.57.1-1.15.18-1.72.23l-.53,0c-.45,0-.91,0-1.37.06h-.21V.43c1.58.11,3,1.71,3.93,4.36,0,.12.08.25.11.37Zm-8.11-.7.07,0,.19.13.06.06a.86.86,0,0,1,.13.2s0,0,0,.06a.88.88,0,0,1,.07.32s0,.09,0,.14h0l0,.07a.92.92,0,0,1-.09.23.87.87,0,0,1-.09.11L18.26,6l-.13.07L18,6.12l-.13,0a.74.74,0,0,1-.21,0,.85.85,0,0,1-.75-.84,1.1,1.1,0,0,1,0-.18h0a.86.86,0,0,1,.84-.69A.88.88,0,0,1,18.05,4.5Zm-1.13,5.83a18.84,18.84,0,0,0,.34,3.4,1.19,1.19,0,0,0-.78,1.11.29.29,0,0,0,0,.09,22.77,22.77,0,0,0-2.43.69,9.8,9.8,0,0,1-1.66-5.29ZM14.28,15.9c.77-.25,1.53-.47,2.28-.65a1.19,1.19,0,0,0,1.12.79.71.71,0,0,0,.2,0,7.16,7.16,0,0,0,2.73,3.79A9.77,9.77,0,0,1,14.28,15.9Zm9.44,3.89A7.2,7.2,0,0,0,26.45,16a.71.71,0,0,0,.2,0,1.19,1.19,0,0,0,1.1-.78A23.3,23.3,0,0,1,30,15.9,9.73,9.73,0,0,1,23.72,19.79Zm6.2-15.52a25,25,0,0,1-3.22.83c0-.14-.08-.28-.13-.42A7.44,7.44,0,0,0,23.73.55,9.81,9.81,0,0,1,29.92,4.27ZM20.58.55A7.07,7.07,0,0,0,18,4.14a1.43,1.43,0,0,0-.22,0,1.18,1.18,0,0,0-1.12.79c-.73-.17-1.47-.38-2.2-.62A9.74,9.74,0,0,1,20.58.55Z" style="fill:#fff"/><path d="M15.25,35.45a.6.6,0,0,1-.06-.11h0s-.06,0-.08-.07a1.44,1.44,0,0,0-.84-.44,1.38,1.38,0,0,0-1,.29c-.05,0-.08.1-.13.15a1.38,1.38,0,0,0-.22.26,1.44,1.44,0,0,0-.12,1,1.82,1.82,0,0,0,.16.31c0,.06.05.13.09.18a1.4,1.4,0,0,0,.45.36,1.44,1.44,0,0,0,.63.16,1.34,1.34,0,0,0,.85-.3,1.35,1.35,0,0,0,.52-.91h0A1.4,1.4,0,0,0,15.25,35.45Z" style="fill:#fff"/><path d="M43.69,12.85a1.81,1.81,0,0,0-.67-.38l-.15,0-.2,0h-.38a3.51,3.51,0,0,0-2.15,1.49l0,.07c-.13.18-.25.36-.38.57l-.17.28-.27.47-.18.35-.24.48c-.06.13-.12.25-.17.38s-.17.37-.24.55-.1.23-.14.34c-.12.29-.22.58-.32.86,0,.12-.08.23-.11.34l-.18.55-.09.37c0,.09-.06.19-.08.28l-.22-.07a1.43,1.43,0,0,0-.27-.09,2.42,2.42,0,0,0-.47-.07l-.29,0c-.2,0-.41,0-.62.07l-.26,0a6.11,6.11,0,0,0-1,.31,19.71,19.71,0,0,0-7.2,5.53h0a24.44,24.44,0,0,0-2.31,6.07,2.2,2.2,0,0,0-.41.12,1.71,1.71,0,0,0-.8.7,3,3,0,0,0-.22.49l-.13.37a9.12,9.12,0,0,0-.65,2.53,1.33,1.33,0,0,0,.07.47,2.65,2.65,0,0,0,1.4,1.29l.38.22a15.46,15.46,0,0,1,2.78,2.39,13.3,13.3,0,0,0,3.14,2.57,1.25,1.25,0,0,0,.58.15.9.9,0,0,0,.38-.08,1.41,1.41,0,0,0,.67-1.07c.1-.39.4-1.2.71-2,1.23-3.33,1.6-4.54,1.36-5.15a1.44,1.44,0,0,0-.28-.48,2.62,2.62,0,0,0-.69-.55,7.61,7.61,0,0,1,4.05-4,10.92,10.92,0,0,0,3.63-2.69c1-1.2,2.15-4.4,2.79-7S44.82,13.83,43.69,12.85ZM36.05,28.6l-.56.31-.05,0c-.18.1-.36.22-.54.34l-.07.06a6.21,6.21,0,0,0-.52.41l-.08.06c-.17.16-.34.32-.51.51l-.08.08c-.17.19-.34.39-.51.62l-.07.09c-.17.23-.34.49-.51.77l0,.08q-.26.44-.51,1v0h0l-.55-.17-.09,0-.59-.18h0L30,32.36l-.12,0-.62-.16-.12,0L28.46,32l-.19,0-.5-.11-.21-.05L27,31.66l-.2,0a2.63,2.63,0,0,0-.39-.06l-.13,0c0-.11.06-.22.1-.35l0-.14c.14-.48.31-1,.5-1.59a1.72,1.72,0,0,1,.07-.21c.07-.21.14-.41.22-.62s.06-.19.1-.28l.21-.54.12-.27c.07-.18.15-.35.23-.52l.11-.21a4.91,4.91,0,0,1,.35-.61,18.3,18.3,0,0,1,6.59-5.05,5.26,5.26,0,0,1,.81-.25,1.74,1.74,0,0,1,1.36.1l0,0a.79.79,0,0,1,.25.28c.07.19.23,1.26-4.32,3.87l-.21.13a.64.64,0,0,0-.23.89.65.65,0,0,0,.89.23l.2-.12c2.58-1.48,5.43-3.41,4.93-5.27a16.48,16.48,0,0,1,2.58-6.39,2.33,2.33,0,0,1,1.25-1,.52.52,0,0,1,.41.15.49.49,0,0,1,.09.15c.2.51.27,2.19-.53,5.44-.7,2.84-1.78,5.63-2.52,6.49a9.47,9.47,0,0,1-3.24,2.38l-.59.31ZM31.58,39.19c-.34.92-.63,1.72-.75,2.17v0a13.76,13.76,0,0,1-2.58-2.22,17.29,17.29,0,0,0-3-2.58l-.42-.24c-.35-.19-.74-.42-.8-.62a9,9,0,0,1,.58-2.1l.13-.38h0c.08-.22.13-.38.39-.45a2.11,2.11,0,0,1,.33,0h.06a31.45,31.45,0,0,1,6.6,1.58h0c.71.29.84.51.85.52A24.6,24.6,0,0,1,31.58,39.19Z" style="fill:#fff"/><path d="M31.42,35.54v0a1.69,1.69,0,0,0-.35-.41h0a1.39,1.39,0,0,0-1.94.22h0a1.35,1.35,0,0,0-.29,1h0a1.36,1.36,0,0,0,.51.92h0l.13.08a1.37,1.37,0,0,0,.73.23h.15a1.33,1.33,0,0,0,.52-.17,1.3,1.3,0,0,0,.4-.34,1.36,1.36,0,0,0,.29-.91s0-.07,0-.11h0A1.23,1.23,0,0,0,31.42,35.54Z" style="fill:#fff"/><path d="M20.85,32.85a1.79,1.79,0,0,0-1.43-1.31,24.29,24.29,0,0,0-2.31-6.07,20.12,20.12,0,0,0-5.52-4.71c-.27-.16-.54-.3-.8-.43l-.2-.1L10,20l-.25-.09-.45-.16-.25-.07-.39-.08-.25,0-.34,0H7.87a1.63,1.63,0,0,0-.31,0l-.21,0-.28.08-.19.08s0,0-.07,0l-.09-.33-.09-.3c-.06-.23-.13-.45-.21-.68,0-.07,0-.14-.07-.22-.1-.3-.22-.6-.34-.91l-.09-.21c-.09-.23-.19-.46-.29-.68l-.14-.3c-.09-.19-.18-.38-.28-.57l-.15-.28c-.1-.19-.2-.36-.3-.53s-.09-.16-.14-.23a5.66,5.66,0,0,0-.44-.65A3.51,3.51,0,0,0,2,12.39a1.81,1.81,0,0,0-1.39.46c-2,1.7,1.09,11.91,2.81,13.91a11,11,0,0,0,3.64,2.69,7.67,7.67,0,0,1,4.05,4,2.07,2.07,0,0,0-1,1c-.23.62.13,1.82,1.35,5.11l.26.72c.21.59.39,1.1.47,1.38s.23.88.67,1.07a.85.85,0,0,0,.37.08,1.38,1.38,0,0,0,.58-.15A13.06,13.06,0,0,0,17,40.12a15.46,15.46,0,0,1,2.78-2.39l.4-.23a2.59,2.59,0,0,0,1.38-1.28,1.29,1.29,0,0,0,.07-.47,8.89,8.89,0,0,0-.64-2.5ZM4.44,25.91C2.5,23.66.56,14.63,1.49,13.83a.74.74,0,0,1,.22-.13h.18a2.3,2.3,0,0,1,1.25,1A16.56,16.56,0,0,1,5.72,21c-.49,1.87,2.35,3.8,4.92,5.28l.21.12a.68.68,0,0,0,.33.09.66.66,0,0,0,.56-.32.65.65,0,0,0-.23-.89l-.22-.13C6.88,22.65,6.88,21.58,7,21.32v0a.83.83,0,0,1,.28-.3,1.14,1.14,0,0,1,.58-.19,6.33,6.33,0,0,1,3.09,1.08A18.81,18.81,0,0,1,16,26.2c.11.17.23.38.35.6l.09.2c.09.17.16.34.24.51s.08.18.11.27.15.35.22.53l.1.28.21.59a2.09,2.09,0,0,0,.08.23c.19.57.36,1.12.5,1.62h0c.05.19.1.35.15.52h0l-.55.09h-.09l-.66.13-.11,0-.62.14-.12,0-.72.17-.08,0-.65.17-.11,0-.69.19h-.05l-.59.18-.09,0-.55.17h0v0c-.16-.34-.33-.65-.5-.94l-.06-.1q-.25-.4-.51-.75L11.19,31c-.17-.22-.34-.42-.51-.61l-.08-.09c-.17-.18-.34-.34-.51-.49L10,29.75c-.17-.14-.34-.28-.51-.4l-.08-.06c-.17-.12-.35-.24-.52-.34l-.08-.05-.53-.3-.06,0-.54-.28A9.47,9.47,0,0,1,4.44,25.91Zm15.1,10.46-.43.24a16.94,16.94,0,0,0-3,2.59,13.88,13.88,0,0,1-2.58,2.2v0h0c0-.05,0-.13-.06-.19s-.13-.44-.24-.73l-.46-1.29A28.22,28.22,0,0,1,11.37,35c0-.08.18-.31.88-.59h0a30.83,30.83,0,0,1,6.62-1.58h0c.55,0,.62.19.72.49l.14.41a9.26,9.26,0,0,1,.57,2.11C20.28,36,19.87,36.18,19.54,36.37Z" style="fill:#fff"/></svg>