<svg id="Layer_1" data-name="Layer 1" xmlns="http://www.w3.org/2000/svg" viewBox="0 0 37.91 50.09"><path d="M36.31,0H1.6A1.6,1.6,0,0,0,0,1.6V48.49a1.6,1.6,0,0,0,1.6,1.6H36.31a1.6,1.6,0,0,0,1.6-1.6V1.6A1.6,1.6,0,0,0,36.31,0ZM.39,7.62V5.28H37.52V7.62ZM37.52,8V19.22H.39V8ZM1.6.39H36.31A1.21,1.21,0,0,1,37.52,1.6V4.89H.39V1.6A1.21,1.21,0,0,1,1.6.39ZM36.31,49.7H1.6A1.21,1.21,0,0,1,.39,48.49V19.61H37.52V48.49A1.21,1.21,0,0,1,36.31,49.7Z" style="fill:#fff"/><path d="M2.41,3.45h1.3a.19.19,0,0,0,.2-.19V2a.2.2,0,0,0-.2-.19H2.41a.2.2,0,0,0-.2.19V3.26A.19.19,0,0,0,2.41,3.45Zm.19-1.3h.92v.91H2.6Z" style="fill:#fff"/><path d="M4.75,3.45H6.06a.19.19,0,0,0,.19-.19V2a.2.2,0,0,0-.19-.19H4.75A.2.2,0,0,0,4.56,2V3.26A.19.19,0,0,0,4.75,3.45ZM5,2.15h.91v.91H5Z" style="fill:#fff"/><path d="M7.1,3.45H8.4a.19.19,0,0,0,.2-.19V2a.2.2,0,0,0-.2-.19H7.1A.2.2,0,0,0,6.9,2V3.26A.19.19,0,0,0,7.1,3.45Zm.19-1.3h.92v.91H7.29Z" style="fill:#fff"/><path d="M2.54,28.4H9.75a.2.2,0,0,0,.2-.2V21.56a.19.19,0,0,0-.2-.19H2.54a.19.19,0,0,0-.2.19V28.2A.2.2,0,0,0,2.54,28.4Zm.2-6.64H9.56V28H2.74Z" style="fill:#fff"/><path d="M12.51,28.4h12.3a.19.19,0,0,0,.19-.2V21.56a.18.18,0,0,0-.19-.19H12.51a.18.18,0,0,0-.19.19V28.2A.19.19,0,0,0,12.51,28.4Zm.2-6.64h11.9V28H12.71Z" style="fill:#fff"/><path d="M34.78,35.16H27.57a.19.19,0,0,0-.2.19V42a.19.19,0,0,0,.2.19h7.21A.19.19,0,0,0,35,42V35.35A.19.19,0,0,0,34.78,35.16Zm-.19,6.67H27.76V35.55h6.83Z" style="fill:#fff"/><path d="M2.54,30.71H9.77a.2.2,0,0,0,.2-.19V29.34a.2.2,0,0,0-.2-.19H2.54a.2.2,0,0,0-.2.19v1.18A.2.2,0,0,0,2.54,30.71Zm.2-1.17H9.57v.78H2.74Z" style="fill:#fff"/><path d="M2.54,32.86H9.77a.2.2,0,0,0,.2-.19V31.49a.2.2,0,0,0-.2-.19H2.54a.2.2,0,0,0-.2.19v1.18A.2.2,0,0,0,2.54,32.86Zm.2-1.17H9.57v.78H2.74Z" style="fill:#fff"/><path d="M12.41,30.71H24.72a.19.19,0,0,0,.19-.19V29.34a.19.19,0,0,0-.19-.19H12.41a.2.2,0,0,0-.2.19v1.18A.2.2,0,0,0,12.41,30.71Zm.19-1.17H24.52v.78H12.6Z" style="fill:#fff"/><path d="M12.41,32.86H24.72a.19.19,0,0,0,.19-.19V31.49a.19.19,0,0,0-.19-.19H12.41a.2.2,0,0,0-.2.19v1.18A.2.2,0,0,0,12.41,32.86Zm.19-1.17H24.52v.78H12.6Z" style="fill:#fff"/><path d="M27.56,28.4h7.22a.2.2,0,0,0,.19-.2V21.56a.19.19,0,0,0-.19-.19H27.56a.19.19,0,0,0-.2.19V28.2A.2.2,0,0,0,27.56,28.4Zm.2-6.64h6.82V28H27.76Z" style="fill:#fff"/><path d="M27.46,30.71h7.23a.2.2,0,0,0,.19-.19V29.34a.2.2,0,0,0-.19-.19H27.46a.2.2,0,0,0-.2.19v1.18A.2.2,0,0,0,27.46,30.71Zm.19-1.17h6.84v.78H27.65Z" style="fill:#fff"/><path d="M34.69,32.86a.2.2,0,0,0,.19-.19V31.49a.2.2,0,0,0-.19-.19H27.46a.2.2,0,0,0-.2.19v1.18a.2.2,0,0,0,.2.19Zm-7-1.17h6.84v.78H27.65Z" style="fill:#fff"/><path d="M9.77,43H2.54a.2.2,0,0,0-.2.2v1.17a.2.2,0,0,0,.2.2H9.77a.2.2,0,0,0,.2-.2V43.22A.2.2,0,0,0,9.77,43Zm-.2,1.18H2.74v-.79H9.57Z" style="fill:#fff"/><path d="M9.77,45.17H2.54a.2.2,0,0,0-.2.2v1.17a.2.2,0,0,0,.2.2H9.77a.2.2,0,0,0,.2-.2V45.37A.2.2,0,0,0,9.77,45.17Zm-.2,1.17H2.74v-.78H9.57Z" style="fill:#fff"/><path d="M24.72,43H12.41a.2.2,0,0,0-.2.2v1.17a.2.2,0,0,0,.2.2H24.72a.19.19,0,0,0,.19-.2V43.22A.19.19,0,0,0,24.72,43Zm-.2,1.18H12.6v-.79H24.52Z" style="fill:#fff"/><path d="M24.72,45.17H12.41a.2.2,0,0,0-.2.2v1.17a.2.2,0,0,0,.2.2H24.72a.19.19,0,0,0,.19-.2V45.37A.19.19,0,0,0,24.72,45.17Zm-.2,1.17H12.6v-.78H24.52Z" style="fill:#fff"/><path d="M34.78,43H27.55a.2.2,0,0,0-.19.2v1.17a.2.2,0,0,0,.19.2h7.23a.2.2,0,0,0,.2-.2V43.22A.2.2,0,0,0,34.78,43Zm-.19,1.18H27.75v-.79h6.84Z" style="fill:#fff"/><path d="M34.78,45.17H27.55a.2.2,0,0,0-.19.2v1.17a.2.2,0,0,0,.19.2h7.23a.2.2,0,0,0,.2-.2V45.37A.2.2,0,0,0,34.78,45.17Zm-.19,1.17H27.75v-.78h6.84Z" style="fill:#fff"/><path d="M24.93,35.24H2.54a.2.2,0,0,0-.2.19v6.65a.19.19,0,0,0,.2.19H24.93a.19.19,0,0,0,.2-.19V35.43A.2.2,0,0,0,24.93,35.24Zm-.19,6.64h-22V35.63h22Z" style="fill:#fff"/><rect x="1.76" y="6.25" width="4.3" height="0.39" style="fill:#fff"/><rect x="7.72" y="6.25" width="4.3" height="0.39" style="fill:#fff"/><rect x="13.68" y="6.25" width="9.38" height="0.39" style="fill:#fff"/><rect x="24.72" y="6.25" width="4.3" height="0.39" style="fill:#fff"/><rect x="30.68" y="6.25" width="4.3" height="0.39" style="fill:#fff"/><path d="M2.25,13.27l1,1.44a.21.21,0,0,0,.16.08.28.28,0,0,0,.12,0,.2.2,0,0,0,0-.27l-1-1.33.85-1.46a.19.19,0,0,0-.07-.26.19.19,0,0,0-.27.07l-.91,1.56A.2.2,0,0,0,2.25,13.27Z" style="fill:#fff"/><path d="M35,13l-.85,1.45a.2.2,0,0,0,.07.27.17.17,0,0,0,.1,0,.22.22,0,0,0,.17-.1l.91-1.56a.22.22,0,0,0,0-.22l-1-1.43a.19.19,0,0,0-.31.23Z" style="fill:#fff"/></svg>